<svg width="60" height="60" viewBox="0 0 60 60" fill="none" xmlns="http://www.w3.org/2000/svg">
<g clip-path="url(#clip0)">
<rect x="5.5" y="1.9585" width="46.4333" height="58.0416" rx="5.38803" fill="#00A82D"/>
<mask id="mask0" mask-type="alpha" maskUnits="userSpaceOnUse" x="5" y="1" width="47" height="60">
<rect x="5.5" y="1.9585" width="46.4333" height="58.0416" rx="5.38803" fill="white"/>
</mask>
<g mask="url(#mask0)">
<g opacity="0.3">
<path fill-rule="evenodd" clip-rule="evenodd" d="M11.0155 2.99802C11.0155 3.53903 10.5755 3.97749 10.0327 3.97749C9.48979 3.97749 9.0498 3.53903 9.0498 2.99802C9.0498 2.4574 9.48979 2.01855 10.0327 2.01855C10.5755 2.01855 11.0155 2.4574 11.0155 2.99802Z" fill="white"/>
<path fill-rule="evenodd" clip-rule="evenodd" d="M7.23192 6.7197C7.23192 7.26031 6.79194 7.69916 6.24907 7.69916C5.70658 7.69916 5.2666 7.26031 5.2666 6.7197C5.2666 6.1787 5.70658 5.74023 6.24907 5.74023C6.79194 5.74023 7.23192 6.1787 7.23192 6.7197Z" fill="white"/>
<path fill-rule="evenodd" clip-rule="evenodd" d="M14.7025 6.7197C14.7025 7.26031 14.2625 7.69916 13.7197 7.69916C13.1768 7.69916 12.7368 7.26031 12.7368 6.7197C12.7368 6.1787 13.1768 5.74023 13.7197 5.74023C14.2625 5.74023 14.7025 6.1787 14.7025 6.7197Z" fill="white"/>
<path fill-rule="evenodd" clip-rule="evenodd" d="M11.0155 10.4458C11.0155 10.9868 10.5755 11.4252 10.0327 11.4252C9.48979 11.4252 9.0498 10.9868 9.0498 10.4458C9.0498 9.90516 9.48979 9.46631 10.0327 9.46631C10.5755 9.46631 11.0155 9.90516 11.0155 10.4458Z" fill="white"/>
<path fill-rule="evenodd" clip-rule="evenodd" d="M7.22791 14.1645C7.22791 14.7055 6.78793 15.144 6.24506 15.144C5.70219 15.144 5.26221 14.7055 5.26221 14.1645C5.26221 13.6235 5.70219 13.1851 6.24506 13.1851C6.78793 13.1851 7.22791 13.6235 7.22791 14.1645Z" fill="white"/>
<path fill-rule="evenodd" clip-rule="evenodd" d="M14.6992 14.1645C14.6992 14.7055 14.2592 15.144 13.7164 15.144C13.1739 15.144 12.7339 14.7055 12.7339 14.1645C12.7339 13.6235 13.1739 13.1851 13.7164 13.1851C14.2592 13.1851 14.6992 13.6235 14.6992 14.1645Z" fill="white"/>
<path fill-rule="evenodd" clip-rule="evenodd" d="M11.0127 17.8901C11.0127 18.4311 10.5727 18.8696 10.0298 18.8696C9.48734 18.8696 9.04736 18.4311 9.04736 17.8901C9.04736 17.3495 9.48734 16.9106 10.0298 16.9106C10.5727 16.9106 11.0127 17.3495 11.0127 17.8901Z" fill="white"/>
<path fill-rule="evenodd" clip-rule="evenodd" d="M18.5439 2.99802C18.5439 3.53903 18.104 3.97749 17.5611 3.97749C17.0186 3.97749 16.5786 3.53903 16.5786 2.99802C16.5786 2.4574 17.0186 2.01855 17.5611 2.01855C18.104 2.01855 18.5439 2.4574 18.5439 2.99802Z" fill="white"/>
<path fill-rule="evenodd" clip-rule="evenodd" d="M26.0121 2.99802C26.0121 3.53903 25.5721 3.97749 25.0292 3.97749C24.4864 3.97749 24.0464 3.53903 24.0464 2.99802C24.0464 2.4574 24.4864 2.01855 25.0292 2.01855C25.5721 2.01855 26.0121 2.4574 26.0121 2.99802Z" fill="white"/>
<path fill-rule="evenodd" clip-rule="evenodd" d="M33.4838 2.99802C33.4838 3.53903 33.0438 3.97749 32.5009 3.97749C31.958 3.97749 31.5181 3.53903 31.5181 2.99802C31.5181 2.4574 31.958 2.01855 32.5009 2.01855C33.0438 2.01855 33.4838 2.4574 33.4838 2.99802Z" fill="white"/>
<path fill-rule="evenodd" clip-rule="evenodd" d="M22.2309 6.7197C22.2309 7.26031 21.791 7.69916 21.2481 7.69916C20.7056 7.69916 20.2656 7.26031 20.2656 6.7197C20.2656 6.1787 20.7056 5.74023 21.2481 5.74023C21.791 5.74023 22.2309 6.1787 22.2309 6.7197Z" fill="white"/>
<path fill-rule="evenodd" clip-rule="evenodd" d="M18.5439 10.4458C18.5439 10.9868 18.104 11.4252 17.5611 11.4252C17.0186 11.4252 16.5786 10.9868 16.5786 10.4458C16.5786 9.90516 17.0186 9.46631 17.5611 9.46631C18.104 9.46631 18.5439 9.90516 18.5439 10.4458Z" fill="white"/>
<path fill-rule="evenodd" clip-rule="evenodd" d="M29.7002 6.7197C29.7002 7.26031 29.2602 7.69916 28.7173 7.69916C28.1748 7.69916 27.7349 7.26031 27.7349 6.7197C27.7349 6.1787 28.1748 5.74023 28.7173 5.74023C29.2602 5.74023 29.7002 6.1787 29.7002 6.7197Z" fill="white"/>
<path fill-rule="evenodd" clip-rule="evenodd" d="M26.0121 10.4458C26.0121 10.9868 25.5721 11.4252 25.0292 11.4252C24.4864 11.4252 24.0464 10.9868 24.0464 10.4458C24.0464 9.90516 24.4864 9.46631 25.0292 9.46631C25.5721 9.46631 26.0121 9.90516 26.0121 10.4458Z" fill="white"/>
<path fill-rule="evenodd" clip-rule="evenodd" d="M37.1694 6.7197C37.1694 7.26031 36.7294 7.69916 36.1866 7.69916C35.6437 7.69916 35.2041 7.26031 35.2041 6.7197C35.2041 6.1787 35.6437 5.74023 36.1866 5.74023C36.7294 5.74023 37.1694 6.1787 37.1694 6.7197Z" fill="white"/>
<path fill-rule="evenodd" clip-rule="evenodd" d="M33.4838 10.4458C33.4838 10.9868 33.0438 11.4252 32.5009 11.4252C31.958 11.4252 31.5181 10.9868 31.5181 10.4458C31.5181 9.90516 31.958 9.46631 32.5009 9.46631C33.0438 9.46631 33.4838 9.90516 33.4838 10.4458Z" fill="white"/>
<path fill-rule="evenodd" clip-rule="evenodd" d="M22.2279 14.1645C22.2279 14.7055 21.7879 15.144 21.2451 15.144C20.7022 15.144 20.2622 14.7055 20.2622 14.1645C20.2622 13.6235 20.7022 13.1851 21.2451 13.1851C21.7879 13.1851 22.2279 13.6235 22.2279 14.1645Z" fill="white"/>
<path fill-rule="evenodd" clip-rule="evenodd" d="M18.5424 17.8901C18.5424 18.4311 18.1024 18.8696 17.5595 18.8696C17.0166 18.8696 16.5767 18.4311 16.5767 17.8901C16.5767 17.3495 17.0166 16.9106 17.5595 16.9106C18.1024 16.9106 18.5424 17.3495 18.5424 17.8901Z" fill="white"/>
<path fill-rule="evenodd" clip-rule="evenodd" d="M29.6967 14.1645C29.6967 14.7055 29.2567 15.144 28.7138 15.144C28.1709 15.144 27.731 14.7055 27.731 14.1645C27.731 13.6235 28.1709 13.1851 28.7138 13.1851C29.2567 13.1851 29.6967 13.6235 29.6967 14.1645Z" fill="white"/>
<path fill-rule="evenodd" clip-rule="evenodd" d="M26.0098 17.8901C26.0098 18.4311 25.5698 18.8696 25.0269 18.8696C24.4844 18.8696 24.0444 18.4311 24.0444 17.8901C24.0444 17.3495 24.4844 16.9106 25.0269 16.9106C25.5698 16.9106 26.0098 17.3495 26.0098 17.8901Z" fill="white"/>
<path fill-rule="evenodd" clip-rule="evenodd" d="M37.1678 14.1645C37.1678 14.7055 36.7279 15.144 36.185 15.144C35.6421 15.144 35.2021 14.7055 35.2021 14.1645C35.2021 13.6235 35.6421 13.1851 36.185 13.1851C36.7279 13.1851 37.1678 13.6235 37.1678 14.1645Z" fill="white"/>
<path fill-rule="evenodd" clip-rule="evenodd" d="M33.4813 17.8901C33.4813 18.4311 33.0413 18.8696 32.4981 18.8696C31.9556 18.8696 31.5156 18.4311 31.5156 17.8901C31.5156 17.3495 31.9556 16.9106 32.4981 16.9106C33.0413 16.9106 33.4813 17.3495 33.4813 17.8901Z" fill="white"/>
<path fill-rule="evenodd" clip-rule="evenodd" d="M41.0122 2.99802C41.0122 3.53903 40.5722 3.97749 40.0293 3.97749C39.4865 3.97749 39.0469 3.53903 39.0469 2.99802C39.0469 2.4574 39.4865 2.01855 40.0293 2.01855C40.5722 2.01855 41.0122 2.4574 41.0122 2.99802Z" fill="white"/>
<path fill-rule="evenodd" clip-rule="evenodd" d="M48.4814 2.99802C48.4814 3.53903 48.0415 3.97749 47.4986 3.97749C46.9557 3.97749 46.5161 3.53903 46.5161 2.99802C46.5161 2.4574 46.9557 2.01855 47.4986 2.01855C48.0415 2.01855 48.4814 2.4574 48.4814 2.99802Z" fill="white"/>
<path fill-rule="evenodd" clip-rule="evenodd" d="M44.7002 6.7197C44.7002 7.26031 44.2602 7.69916 43.7173 7.69916C43.1745 7.69916 42.7349 7.26031 42.7349 6.7197C42.7349 6.1787 43.1745 5.74023 43.7173 5.74023C44.2602 5.74023 44.7002 6.1787 44.7002 6.7197Z" fill="white"/>
<path fill-rule="evenodd" clip-rule="evenodd" d="M41.0122 10.4458C41.0122 10.9868 40.5722 11.4252 40.0293 11.4252C39.4865 11.4252 39.0469 10.9868 39.0469 10.4458C39.0469 9.90516 39.4865 9.46631 40.0293 9.46631C40.5722 9.46631 41.0122 9.90516 41.0122 10.4458Z" fill="white"/>
<path fill-rule="evenodd" clip-rule="evenodd" d="M52.1665 6.7197C52.1665 7.26031 51.7265 7.69916 51.1836 7.69916C50.6408 7.69916 50.2012 7.26031 50.2012 6.7197C50.2012 6.1787 50.6408 5.74023 51.1836 5.74023C51.7265 5.74023 52.1665 6.1787 52.1665 6.7197Z" fill="white"/>
<path fill-rule="evenodd" clip-rule="evenodd" d="M48.4814 10.4458C48.4814 10.9868 48.0415 11.4252 47.4986 11.4252C46.9557 11.4252 46.5161 10.9868 46.5161 10.4458C46.5161 9.90516 46.9557 9.46631 47.4986 9.46631C48.0415 9.46631 48.4814 9.90516 48.4814 10.4458Z" fill="white"/>
<path fill-rule="evenodd" clip-rule="evenodd" d="M44.6973 14.1645C44.6973 14.7055 44.2573 15.144 43.7144 15.144C43.1715 15.144 42.7319 14.7055 42.7319 14.1645C42.7319 13.6235 43.1715 13.1851 43.7144 13.1851C44.2573 13.1851 44.6973 13.6235 44.6973 14.1645Z" fill="white"/>
<path fill-rule="evenodd" clip-rule="evenodd" d="M41.0098 17.8901C41.0098 18.4311 40.5698 18.8696 40.0269 18.8696C39.484 18.8696 39.0444 18.4311 39.0444 17.8901C39.0444 17.3495 39.484 16.9106 40.0269 16.9106C40.5698 16.9106 41.0098 17.3495 41.0098 17.8901Z" fill="white"/>
<path fill-rule="evenodd" clip-rule="evenodd" d="M52.1636 14.1645C52.1636 14.7055 51.7236 15.144 51.1807 15.144C50.6378 15.144 50.1982 14.7055 50.1982 14.1645C50.1982 13.6235 50.6378 13.1851 51.1807 13.1851C51.7236 13.1851 52.1636 13.6235 52.1636 14.1645Z" fill="white"/>
<path fill-rule="evenodd" clip-rule="evenodd" d="M48.4784 17.8901C48.4784 18.4311 48.0384 18.8696 47.4956 18.8696C46.9527 18.8696 46.5127 18.4311 46.5127 17.8901C46.5127 17.3495 46.9527 16.9106 47.4956 16.9106C48.0384 16.9106 48.4784 17.3495 48.4784 17.8901Z" fill="white"/>
<path fill-rule="evenodd" clip-rule="evenodd" d="M7.23192 21.7397C7.23192 22.2807 6.79194 22.7192 6.24907 22.7192C5.70658 22.7192 5.2666 22.2807 5.2666 21.7397C5.2666 21.1991 5.70658 20.7603 6.24907 20.7603C6.79194 20.7603 7.23192 21.1991 7.23192 21.7397Z" fill="white"/>
<path fill-rule="evenodd" clip-rule="evenodd" d="M14.7025 21.7397C14.7025 22.2807 14.2625 22.7192 13.7197 22.7192C13.1768 22.7192 12.7368 22.2807 12.7368 21.7397C12.7368 21.1991 13.1768 20.7603 13.7197 20.7603C14.2625 20.7603 14.7025 21.1991 14.7025 21.7397Z" fill="white"/>
<path fill-rule="evenodd" clip-rule="evenodd" d="M11.0155 25.4658C11.0155 26.0068 10.5755 26.4456 10.0327 26.4456C9.48979 26.4456 9.0498 26.0068 9.0498 25.4658C9.0498 24.9252 9.48979 24.4863 10.0327 24.4863C10.5755 24.4863 11.0155 24.9252 11.0155 25.4658Z" fill="white"/>
<path fill-rule="evenodd" clip-rule="evenodd" d="M7.23192 29.1875C7.23192 29.7285 6.79194 30.1669 6.24907 30.1669C5.70658 30.1669 5.2666 29.7285 5.2666 29.1875C5.2666 28.6469 5.70658 28.208 6.24907 28.208C6.79194 28.208 7.23192 28.6469 7.23192 29.1875Z" fill="white"/>
<path fill-rule="evenodd" clip-rule="evenodd" d="M14.7025 29.1875C14.7025 29.7285 14.2625 30.1669 13.7197 30.1669C13.1768 30.1669 12.7368 29.7285 12.7368 29.1875C12.7368 28.6469 13.1768 28.208 13.7197 28.208C14.2625 28.208 14.7025 28.6469 14.7025 29.1875Z" fill="white"/>
<path fill-rule="evenodd" clip-rule="evenodd" d="M11.0155 32.9139C11.0155 33.4545 10.5755 33.8934 10.0327 33.8934C9.48979 33.8934 9.0498 33.4545 9.0498 32.9139C9.0498 32.3729 9.48979 31.9341 10.0327 31.9341C10.5755 31.9341 11.0155 32.3729 11.0155 32.9139Z" fill="white"/>
<path fill-rule="evenodd" clip-rule="evenodd" d="M7.22791 36.6323C7.22791 37.1733 6.78793 37.6118 6.24506 37.6118C5.70219 37.6118 5.26221 37.1733 5.26221 36.6323C5.26221 36.0917 5.70219 35.6528 6.24506 35.6528C6.78793 35.6528 7.22791 36.0917 7.22791 36.6323Z" fill="white"/>
<path fill-rule="evenodd" clip-rule="evenodd" d="M14.6992 36.6323C14.6992 37.1733 14.2592 37.6118 13.7164 37.6118C13.1739 37.6118 12.7339 37.1733 12.7339 36.6323C12.7339 36.0917 13.1739 35.6528 13.7164 35.6528C14.2592 35.6528 14.6992 36.0917 14.6992 36.6323Z" fill="white"/>
<path fill-rule="evenodd" clip-rule="evenodd" d="M11.0127 40.3583C11.0127 40.8989 10.5727 41.3377 10.0298 41.3377C9.48734 41.3377 9.04736 40.8989 9.04736 40.3583C9.04736 39.8173 9.48734 39.3784 10.0298 39.3784C10.5727 39.3784 11.0127 39.8173 11.0127 40.3583Z" fill="white"/>
<path fill-rule="evenodd" clip-rule="evenodd" d="M22.2309 21.7397C22.2309 22.2807 21.791 22.7192 21.2481 22.7192C20.7056 22.7192 20.2656 22.2807 20.2656 21.7397C20.2656 21.1991 20.7056 20.7603 21.2481 20.7603C21.791 20.7603 22.2309 21.1991 22.2309 21.7397Z" fill="white"/>
<path fill-rule="evenodd" clip-rule="evenodd" d="M18.5439 25.4658C18.5439 26.0068 18.104 26.4456 17.5611 26.4456C17.0186 26.4456 16.5786 26.0068 16.5786 25.4658C16.5786 24.9252 17.0186 24.4863 17.5611 24.4863C18.104 24.4863 18.5439 24.9252 18.5439 25.4658Z" fill="white"/>
<path fill-rule="evenodd" clip-rule="evenodd" d="M29.7002 21.7397C29.7002 22.2807 29.2602 22.7192 28.7173 22.7192C28.1748 22.7192 27.7349 22.2807 27.7349 21.7397C27.7349 21.1991 28.1748 20.7603 28.7173 20.7603C29.2602 20.7603 29.7002 21.1991 29.7002 21.7397Z" fill="white"/>
<path fill-rule="evenodd" clip-rule="evenodd" d="M26.0121 25.4658C26.0121 26.0068 25.5721 26.4456 25.0292 26.4456C24.4864 26.4456 24.0464 26.0068 24.0464 25.4658C24.0464 24.9252 24.4864 24.4863 25.0292 24.4863C25.5721 24.4863 26.0121 24.9252 26.0121 25.4658Z" fill="white"/>
<path fill-rule="evenodd" clip-rule="evenodd" d="M37.1694 21.7397C37.1694 22.2807 36.7294 22.7192 36.1866 22.7192C35.6437 22.7192 35.2041 22.2807 35.2041 21.7397C35.2041 21.1991 35.6437 20.7603 36.1866 20.7603C36.7294 20.7603 37.1694 21.1991 37.1694 21.7397Z" fill="white"/>
<path fill-rule="evenodd" clip-rule="evenodd" d="M33.4838 25.4658C33.4838 26.0068 33.0438 26.4456 32.5009 26.4456C31.958 26.4456 31.5181 26.0068 31.5181 25.4658C31.5181 24.9252 31.958 24.4863 32.5009 24.4863C33.0438 24.4863 33.4838 24.9252 33.4838 25.4658Z" fill="white"/>
<path fill-rule="evenodd" clip-rule="evenodd" d="M22.2309 29.1875C22.2309 29.7285 21.791 30.1669 21.2481 30.1669C20.7056 30.1669 20.2656 29.7285 20.2656 29.1875C20.2656 28.6469 20.7056 28.208 21.2481 28.208C21.791 28.208 22.2309 28.6469 22.2309 29.1875Z" fill="white"/>
<path fill-rule="evenodd" clip-rule="evenodd" d="M18.5439 32.9139C18.5439 33.4545 18.104 33.8934 17.5611 33.8934C17.0186 33.8934 16.5786 33.4545 16.5786 32.9139C16.5786 32.3729 17.0186 31.9341 17.5611 31.9341C18.104 31.9341 18.5439 32.3729 18.5439 32.9139Z" fill="white"/>
<path fill-rule="evenodd" clip-rule="evenodd" d="M29.7002 29.1875C29.7002 29.7285 29.2602 30.1669 28.7173 30.1669C28.1748 30.1669 27.7349 29.7285 27.7349 29.1875C27.7349 28.6469 28.1748 28.208 28.7173 28.208C29.2602 28.208 29.7002 28.6469 29.7002 29.1875Z" fill="white"/>
<path fill-rule="evenodd" clip-rule="evenodd" d="M26.0121 32.9139C26.0121 33.4545 25.5721 33.8934 25.0292 33.8934C24.4864 33.8934 24.0464 33.4545 24.0464 32.9139C24.0464 32.3729 24.4864 31.9341 25.0292 31.9341C25.5721 31.9341 26.0121 32.3729 26.0121 32.9139Z" fill="white"/>
<path fill-rule="evenodd" clip-rule="evenodd" d="M37.1694 29.1875C37.1694 29.7285 36.7294 30.1669 36.1866 30.1669C35.6437 30.1669 35.2041 29.7285 35.2041 29.1875C35.2041 28.6469 35.6437 28.208 36.1866 28.208C36.7294 28.208 37.1694 28.6469 37.1694 29.1875Z" fill="white"/>
<path fill-rule="evenodd" clip-rule="evenodd" d="M33.4838 32.9139C33.4838 33.4545 33.0438 33.8934 32.5009 33.8934C31.958 33.8934 31.5181 33.4545 31.5181 32.9139C31.5181 32.3729 31.958 31.9341 32.5009 31.9341C33.0438 31.9341 33.4838 32.3729 33.4838 32.9139Z" fill="white"/>
<path fill-rule="evenodd" clip-rule="evenodd" d="M22.2279 36.6323C22.2279 37.1733 21.7879 37.6118 21.2451 37.6118C20.7022 37.6118 20.2622 37.1733 20.2622 36.6323C20.2622 36.0917 20.7022 35.6528 21.2451 35.6528C21.7879 35.6528 22.2279 36.0917 22.2279 36.6323Z" fill="white"/>
<path fill-rule="evenodd" clip-rule="evenodd" d="M18.5424 40.3583C18.5424 40.8989 18.1024 41.3377 17.5595 41.3377C17.0166 41.3377 16.5767 40.8989 16.5767 40.3583C16.5767 39.8173 17.0166 39.3784 17.5595 39.3784C18.1024 39.3784 18.5424 39.8173 18.5424 40.3583Z" fill="white"/>
<path fill-rule="evenodd" clip-rule="evenodd" d="M29.6967 36.6323C29.6967 37.1733 29.2567 37.6118 28.7138 37.6118C28.1709 37.6118 27.731 37.1733 27.731 36.6323C27.731 36.0917 28.1709 35.6528 28.7138 35.6528C29.2567 35.6528 29.6967 36.0917 29.6967 36.6323Z" fill="white"/>
<path fill-rule="evenodd" clip-rule="evenodd" d="M26.0098 40.3583C26.0098 40.8989 25.5698 41.3377 25.0269 41.3377C24.4844 41.3377 24.0444 40.8989 24.0444 40.3583C24.0444 39.8173 24.4844 39.3784 25.0269 39.3784C25.5698 39.3784 26.0098 39.8173 26.0098 40.3583Z" fill="white"/>
<path fill-rule="evenodd" clip-rule="evenodd" d="M37.1678 36.6323C37.1678 37.1733 36.7279 37.6118 36.185 37.6118C35.6421 37.6118 35.2021 37.1733 35.2021 36.6323C35.2021 36.0917 35.6421 35.6528 36.185 35.6528C36.7279 35.6528 37.1678 36.0917 37.1678 36.6323Z" fill="white"/>
<path fill-rule="evenodd" clip-rule="evenodd" d="M33.4813 40.3583C33.4813 40.8989 33.0413 41.3377 32.4981 41.3377C31.9556 41.3377 31.5156 40.8989 31.5156 40.3583C31.5156 39.8173 31.9556 39.3784 32.4981 39.3784C33.0413 39.3784 33.4813 39.8173 33.4813 40.3583Z" fill="white"/>
<path fill-rule="evenodd" clip-rule="evenodd" d="M44.7002 21.7397C44.7002 22.2807 44.2602 22.7192 43.7173 22.7192C43.1745 22.7192 42.7349 22.2807 42.7349 21.7397C42.7349 21.1991 43.1745 20.7603 43.7173 20.7603C44.2602 20.7603 44.7002 21.1991 44.7002 21.7397Z" fill="white"/>
<path fill-rule="evenodd" clip-rule="evenodd" d="M41.0122 25.4658C41.0122 26.0068 40.5722 26.4456 40.0293 26.4456C39.4865 26.4456 39.0469 26.0068 39.0469 25.4658C39.0469 24.9252 39.4865 24.4863 40.0293 24.4863C40.5722 24.4863 41.0122 24.9252 41.0122 25.4658Z" fill="white"/>
<path fill-rule="evenodd" clip-rule="evenodd" d="M52.1665 21.7397C52.1665 22.2807 51.7265 22.7192 51.1836 22.7192C50.6408 22.7192 50.2012 22.2807 50.2012 21.7397C50.2012 21.1991 50.6408 20.7603 51.1836 20.7603C51.7265 20.7603 52.1665 21.1991 52.1665 21.7397Z" fill="white"/>
<path fill-rule="evenodd" clip-rule="evenodd" d="M48.4814 25.4658C48.4814 26.0068 48.0415 26.4456 47.4986 26.4456C46.9557 26.4456 46.5161 26.0068 46.5161 25.4658C46.5161 24.9252 46.9557 24.4863 47.4986 24.4863C48.0415 24.4863 48.4814 24.9252 48.4814 25.4658Z" fill="white"/>
<path fill-rule="evenodd" clip-rule="evenodd" d="M44.7002 29.1875C44.7002 29.7285 44.2602 30.1669 43.7173 30.1669C43.1745 30.1669 42.7349 29.7285 42.7349 29.1875C42.7349 28.6469 43.1745 28.208 43.7173 28.208C44.2602 28.208 44.7002 28.6469 44.7002 29.1875Z" fill="white"/>
<path fill-rule="evenodd" clip-rule="evenodd" d="M41.0122 32.9139C41.0122 33.4545 40.5722 33.8934 40.0293 33.8934C39.4865 33.8934 39.0469 33.4545 39.0469 32.9139C39.0469 32.3729 39.4865 31.9341 40.0293 31.9341C40.5722 31.9341 41.0122 32.3729 41.0122 32.9139Z" fill="white"/>
<path fill-rule="evenodd" clip-rule="evenodd" d="M52.1665 29.1875C52.1665 29.7285 51.7265 30.1669 51.1836 30.1669C50.6408 30.1669 50.2012 29.7285 50.2012 29.1875C50.2012 28.6469 50.6408 28.208 51.1836 28.208C51.7265 28.208 52.1665 28.6469 52.1665 29.1875Z" fill="white"/>
<path fill-rule="evenodd" clip-rule="evenodd" d="M48.4814 32.9139C48.4814 33.4545 48.0415 33.8934 47.4986 33.8934C46.9557 33.8934 46.5161 33.4545 46.5161 32.9139C46.5161 32.3729 46.9557 31.9341 47.4986 31.9341C48.0415 31.9341 48.4814 32.3729 48.4814 32.9139Z" fill="white"/>
<path fill-rule="evenodd" clip-rule="evenodd" d="M44.6973 36.6323C44.6973 37.1733 44.2573 37.6118 43.7144 37.6118C43.1715 37.6118 42.7319 37.1733 42.7319 36.6323C42.7319 36.0917 43.1715 35.6528 43.7144 35.6528C44.2573 35.6528 44.6973 36.0917 44.6973 36.6323Z" fill="white"/>
<path fill-rule="evenodd" clip-rule="evenodd" d="M41.0098 40.3583C41.0098 40.8989 40.5698 41.3377 40.0269 41.3377C39.484 41.3377 39.0444 40.8989 39.0444 40.3583C39.0444 39.8173 39.484 39.3784 40.0269 39.3784C40.5698 39.3784 41.0098 39.8173 41.0098 40.3583Z" fill="white"/>
<path fill-rule="evenodd" clip-rule="evenodd" d="M52.1636 36.6323C52.1636 37.1733 51.7236 37.6118 51.1807 37.6118C50.6378 37.6118 50.1982 37.1733 50.1982 36.6323C50.1982 36.0917 50.6378 35.6528 51.1807 35.6528C51.7236 35.6528 52.1636 36.0917 52.1636 36.6323Z" fill="white"/>
<path fill-rule="evenodd" clip-rule="evenodd" d="M48.4784 40.3583C48.4784 40.8989 48.0384 41.3377 47.4956 41.3377C46.9527 41.3377 46.5127 40.8989 46.5127 40.3583C46.5127 39.8173 46.9527 39.3784 47.4956 39.3784C48.0384 39.3784 48.4784 39.8173 48.4784 40.3583Z" fill="white"/>
<path fill-rule="evenodd" clip-rule="evenodd" d="M7.23192 44.2079C7.23192 44.7485 6.79194 45.1873 6.24907 45.1873C5.70658 45.1873 5.2666 44.7485 5.2666 44.2079C5.2666 43.6669 5.70658 43.228 6.24907 43.228C6.79194 43.228 7.23192 43.6669 7.23192 44.2079Z" fill="white"/>
<path fill-rule="evenodd" clip-rule="evenodd" d="M14.7025 44.2079C14.7025 44.7485 14.2625 45.1873 13.7197 45.1873C13.1768 45.1873 12.7368 44.7485 12.7368 44.2079C12.7368 43.6669 13.1768 43.228 13.7197 43.228C14.2625 43.228 14.7025 43.6669 14.7025 44.2079Z" fill="white"/>
<path fill-rule="evenodd" clip-rule="evenodd" d="M11.0155 47.9341C11.0155 48.4747 10.5755 48.9135 10.0327 48.9135C9.48979 48.9135 9.0498 48.4747 9.0498 47.9341C9.0498 47.3931 9.48979 46.9546 10.0327 46.9546C10.5755 46.9546 11.0155 47.3931 11.0155 47.9341Z" fill="white"/>
<path fill-rule="evenodd" clip-rule="evenodd" d="M7.23192 51.6556C7.23192 52.1963 6.79194 52.6351 6.24907 52.6351C5.70658 52.6351 5.2666 52.1963 5.2666 51.6556C5.2666 51.1146 5.70658 50.6758 6.24907 50.6758C6.79194 50.6758 7.23192 51.1146 7.23192 51.6556Z" fill="white"/>
<path fill-rule="evenodd" clip-rule="evenodd" d="M14.7025 51.6556C14.7025 52.1963 14.2625 52.6351 13.7197 52.6351C13.1768 52.6351 12.7368 52.1963 12.7368 51.6556C12.7368 51.1146 13.1768 50.6758 13.7197 50.6758C14.2625 50.6758 14.7025 51.1146 14.7025 51.6556Z" fill="white"/>
<path fill-rule="evenodd" clip-rule="evenodd" d="M11.0155 55.3818C11.0155 55.9224 10.5755 56.3613 10.0327 56.3613C9.48979 56.3613 9.0498 55.9224 9.0498 55.3818C9.0498 54.8408 9.48979 54.4023 10.0327 54.4023C10.5755 54.4023 11.0155 54.8408 11.0155 55.3818Z" fill="white"/>
<path fill-rule="evenodd" clip-rule="evenodd" d="M7.22791 59.1006C7.22791 59.6412 6.78793 60.08 6.24506 60.08C5.70219 60.08 5.26221 59.6412 5.26221 59.1006C5.26221 58.5596 5.70219 58.1211 6.24506 58.1211C6.78793 58.1211 7.22791 58.5596 7.22791 59.1006Z" fill="white"/>
<path fill-rule="evenodd" clip-rule="evenodd" d="M14.6992 59.1006C14.6992 59.6412 14.2592 60.08 13.7164 60.08C13.1739 60.08 12.7339 59.6412 12.7339 59.1006C12.7339 58.5596 13.1739 58.1211 13.7164 58.1211C14.2592 58.1211 14.6992 58.5596 14.6992 59.1006Z" fill="white"/>
<path fill-rule="evenodd" clip-rule="evenodd" d="M22.2309 44.2079C22.2309 44.7485 21.791 45.1873 21.2481 45.1873C20.7056 45.1873 20.2656 44.7485 20.2656 44.2079C20.2656 43.6669 20.7056 43.228 21.2481 43.228C21.791 43.228 22.2309 43.6669 22.2309 44.2079Z" fill="white"/>
<path fill-rule="evenodd" clip-rule="evenodd" d="M18.5439 47.9341C18.5439 48.4747 18.104 48.9135 17.5611 48.9135C17.0186 48.9135 16.5786 48.4747 16.5786 47.9341C16.5786 47.3931 17.0186 46.9546 17.5611 46.9546C18.104 46.9546 18.5439 47.3931 18.5439 47.9341Z" fill="white"/>
<path fill-rule="evenodd" clip-rule="evenodd" d="M29.7002 44.2079C29.7002 44.7485 29.2602 45.1873 28.7173 45.1873C28.1748 45.1873 27.7349 44.7485 27.7349 44.2079C27.7349 43.6669 28.1748 43.228 28.7173 43.228C29.2602 43.228 29.7002 43.6669 29.7002 44.2079Z" fill="white"/>
<path fill-rule="evenodd" clip-rule="evenodd" d="M26.0121 47.9341C26.0121 48.4747 25.5721 48.9135 25.0292 48.9135C24.4864 48.9135 24.0464 48.4747 24.0464 47.9341C24.0464 47.3931 24.4864 46.9546 25.0292 46.9546C25.5721 46.9546 26.0121 47.3931 26.0121 47.9341Z" fill="white"/>
<path fill-rule="evenodd" clip-rule="evenodd" d="M37.1694 44.2079C37.1694 44.7485 36.7294 45.1873 36.1866 45.1873C35.6437 45.1873 35.2041 44.7485 35.2041 44.2079C35.2041 43.6669 35.6437 43.228 36.1866 43.228C36.7294 43.228 37.1694 43.6669 37.1694 44.2079Z" fill="white"/>
<path fill-rule="evenodd" clip-rule="evenodd" d="M33.4838 47.9341C33.4838 48.4747 33.0438 48.9135 32.5009 48.9135C31.958 48.9135 31.5181 48.4747 31.5181 47.9341C31.5181 47.3931 31.958 46.9546 32.5009 46.9546C33.0438 46.9546 33.4838 47.3931 33.4838 47.9341Z" fill="white"/>
<path fill-rule="evenodd" clip-rule="evenodd" d="M22.2309 51.6556C22.2309 52.1963 21.791 52.6351 21.2481 52.6351C20.7056 52.6351 20.2656 52.1963 20.2656 51.6556C20.2656 51.1146 20.7056 50.6758 21.2481 50.6758C21.791 50.6758 22.2309 51.1146 22.2309 51.6556Z" fill="white"/>
<path fill-rule="evenodd" clip-rule="evenodd" d="M18.5439 55.3818C18.5439 55.9224 18.104 56.3613 17.5611 56.3613C17.0186 56.3613 16.5786 55.9224 16.5786 55.3818C16.5786 54.8408 17.0186 54.4023 17.5611 54.4023C18.104 54.4023 18.5439 54.8408 18.5439 55.3818Z" fill="white"/>
<path fill-rule="evenodd" clip-rule="evenodd" d="M29.7002 51.6556C29.7002 52.1963 29.2602 52.6351 28.7173 52.6351C28.1748 52.6351 27.7349 52.1963 27.7349 51.6556C27.7349 51.1146 28.1748 50.6758 28.7173 50.6758C29.2602 50.6758 29.7002 51.1146 29.7002 51.6556Z" fill="white"/>
<path fill-rule="evenodd" clip-rule="evenodd" d="M26.0121 55.3818C26.0121 55.9224 25.5721 56.3613 25.0292 56.3613C24.4864 56.3613 24.0464 55.9224 24.0464 55.3818C24.0464 54.8408 24.4864 54.4023 25.0292 54.4023C25.5721 54.4023 26.0121 54.8408 26.0121 55.3818Z" fill="white"/>
<path fill-rule="evenodd" clip-rule="evenodd" d="M37.1694 51.6556C37.1694 52.1963 36.7294 52.6351 36.1866 52.6351C35.6437 52.6351 35.2041 52.1963 35.2041 51.6556C35.2041 51.1146 35.6437 50.6758 36.1866 50.6758C36.7294 50.6758 37.1694 51.1146 37.1694 51.6556Z" fill="white"/>
<path fill-rule="evenodd" clip-rule="evenodd" d="M33.4838 55.3818C33.4838 55.9224 33.0438 56.3613 32.5009 56.3613C31.958 56.3613 31.5181 55.9224 31.5181 55.3818C31.5181 54.8408 31.958 54.4023 32.5009 54.4023C33.0438 54.4023 33.4838 54.8408 33.4838 55.3818Z" fill="white"/>
<path fill-rule="evenodd" clip-rule="evenodd" d="M22.2279 59.1006C22.2279 59.6412 21.7879 60.08 21.2451 60.08C20.7022 60.08 20.2622 59.6412 20.2622 59.1006C20.2622 58.5596 20.7022 58.1211 21.2451 58.1211C21.7879 58.1211 22.2279 58.5596 22.2279 59.1006Z" fill="white"/>
<path fill-rule="evenodd" clip-rule="evenodd" d="M29.6967 59.1006C29.6967 59.6412 29.2567 60.08 28.7138 60.08C28.1709 60.08 27.731 59.6412 27.731 59.1006C27.731 58.5596 28.1709 58.1211 28.7138 58.1211C29.2567 58.1211 29.6967 58.5596 29.6967 59.1006Z" fill="white"/>
<path fill-rule="evenodd" clip-rule="evenodd" d="M37.1678 59.1006C37.1678 59.6412 36.7279 60.08 36.185 60.08C35.6421 60.08 35.2021 59.6412 35.2021 59.1006C35.2021 58.5596 35.6421 58.1211 36.185 58.1211C36.7279 58.1211 37.1678 58.5596 37.1678 59.1006Z" fill="white"/>
<path fill-rule="evenodd" clip-rule="evenodd" d="M44.7002 44.2079C44.7002 44.7485 44.2602 45.1873 43.7173 45.1873C43.1745 45.1873 42.7349 44.7485 42.7349 44.2079C42.7349 43.6669 43.1745 43.228 43.7173 43.228C44.2602 43.228 44.7002 43.6669 44.7002 44.2079Z" fill="white"/>
<path fill-rule="evenodd" clip-rule="evenodd" d="M41.0122 47.9341C41.0122 48.4747 40.5722 48.9135 40.0293 48.9135C39.4865 48.9135 39.0469 48.4747 39.0469 47.9341C39.0469 47.3931 39.4865 46.9546 40.0293 46.9546C40.5722 46.9546 41.0122 47.3931 41.0122 47.9341Z" fill="white"/>
<path fill-rule="evenodd" clip-rule="evenodd" d="M52.1665 44.2079C52.1665 44.7485 51.7265 45.1873 51.1836 45.1873C50.6408 45.1873 50.2012 44.7485 50.2012 44.2079C50.2012 43.6669 50.6408 43.228 51.1836 43.228C51.7265 43.228 52.1665 43.6669 52.1665 44.2079Z" fill="white"/>
<path fill-rule="evenodd" clip-rule="evenodd" d="M48.4814 47.9341C48.4814 48.4747 48.0415 48.9135 47.4986 48.9135C46.9557 48.9135 46.5161 48.4747 46.5161 47.9341C46.5161 47.3931 46.9557 46.9546 47.4986 46.9546C48.0415 46.9546 48.4814 47.3931 48.4814 47.9341Z" fill="white"/>
<path fill-rule="evenodd" clip-rule="evenodd" d="M44.7002 51.6556C44.7002 52.1963 44.2602 52.6351 43.7173 52.6351C43.1745 52.6351 42.7349 52.1963 42.7349 51.6556C42.7349 51.1146 43.1745 50.6758 43.7173 50.6758C44.2602 50.6758 44.7002 51.1146 44.7002 51.6556Z" fill="white"/>
<path fill-rule="evenodd" clip-rule="evenodd" d="M41.0122 55.3818C41.0122 55.9224 40.5722 56.3613 40.0293 56.3613C39.4865 56.3613 39.0469 55.9224 39.0469 55.3818C39.0469 54.8408 39.4865 54.4023 40.0293 54.4023C40.5722 54.4023 41.0122 54.8408 41.0122 55.3818Z" fill="white"/>
<path fill-rule="evenodd" clip-rule="evenodd" d="M52.1665 51.6556C52.1665 52.1963 51.7265 52.6351 51.1836 52.6351C50.6408 52.6351 50.2012 52.1963 50.2012 51.6556C50.2012 51.1146 50.6408 50.6758 51.1836 50.6758C51.7265 50.6758 52.1665 51.1146 52.1665 51.6556Z" fill="white"/>
<path fill-rule="evenodd" clip-rule="evenodd" d="M48.4814 55.3818C48.4814 55.9224 48.0415 56.3613 47.4986 56.3613C46.9557 56.3613 46.5161 55.9224 46.5161 55.3818C46.5161 54.8408 46.9557 54.4023 47.4986 54.4023C48.0415 54.4023 48.4814 54.8408 48.4814 55.3818Z" fill="white"/>
<path fill-rule="evenodd" clip-rule="evenodd" d="M44.6973 59.1006C44.6973 59.6412 44.2573 60.08 43.7144 60.08C43.1715 60.08 42.7319 59.6412 42.7319 59.1006C42.7319 58.5596 43.1715 58.1211 43.7144 58.1211C44.2573 58.1211 44.6973 58.5596 44.6973 59.1006Z" fill="white"/>
<path fill-rule="evenodd" clip-rule="evenodd" d="M52.1636 59.1006C52.1636 59.6412 51.7236 60.08 51.1807 60.08C50.6378 60.08 50.1982 59.6412 50.1982 59.1006C50.1982 58.5596 50.6378 58.1211 51.1807 58.1211C51.7236 58.1211 52.1636 58.5596 52.1636 59.1006Z" fill="white"/>
</g>
</g>
<rect x="11.5742" y="34.2754" width="34.4715" height="18.313" rx="2" fill="#007620"/>
<mask id="mask1" mask-type="alpha" maskUnits="userSpaceOnUse" x="11" y="34" width="36" height="19">
<rect x="11.5742" y="34.2754" width="34.4715" height="18.313" rx="2" fill="#007620"/>
</mask>
<g mask="url(#mask1)">
<path d="M35.6025 45.9243C34.2062 46.8766 32.3509 48.2084 31.0533 49.1288C30.3997 49.5924 30.1048 51.0826 30.5533 51.7468L37.4262 61.9237C37.7308 62.3748 38.3403 62.4994 38.7976 62.204L47.234 56.7537C47.7933 56.3924 47.8499 55.5957 47.3473 55.1589L36.8069 45.999C36.4676 45.7041 35.9739 45.671 35.6025 45.9243Z" fill="white"/>
<path d="M41.0503 60.3681L23.7371 41.7909C23.3397 41.3644 22.6631 41.367 22.2689 41.7965L6.21642 59.2835C5.68605 59.8613 5.99689 60.7969 6.76755 60.9424L40.7477 67.3586C41.4101 67.4837 42.0039 66.931 41.9267 66.2614L41.3121 60.9353C41.2876 60.7231 41.1959 60.5243 41.0503 60.3681Z" fill="white"/>
<circle cx="41.198" cy="39.1228" r="2.69308" fill="#CEDC00"/>
</g>
<path fill-rule="evenodd" clip-rule="evenodd" d="M47.6495 2.45504C44.4212 1.43441 40.9768 3.22408 39.9561 6.45237L34.7164 23.0261C34.7085 23.051 34.6998 23.0754 34.6904 23.0992C34.6844 23.1242 34.6775 23.1491 34.6696 23.174C34.1739 24.742 35.1864 26.93 37.1615 27.5544C39.1421 28.1805 41.2428 26.971 41.7369 25.4083L45.6513 13.0266L45.6523 13.0235C45.8716 12.3299 45.4871 11.5898 44.7935 11.3705C44.0998 11.1512 43.3598 11.5357 43.1405 12.2294L40.5823 20.321C40.4019 20.8917 39.7929 21.2081 39.2222 21.0277C38.6515 20.8472 38.3351 20.2383 38.5155 19.6675L41.0737 11.5759C41.6538 9.74084 43.6118 8.72352 45.4469 9.30369C47.1052 9.82798 48.0958 11.4775 47.843 13.1446C47.8405 13.2441 47.8241 13.3448 47.7926 13.4444L43.8037 26.0617C42.9307 28.823 39.5722 30.5899 36.5081 29.6212C33.4386 28.6508 31.7315 25.2765 32.6028 22.5205C32.6107 22.4957 32.6193 22.4713 32.6288 22.4474C32.6348 22.4225 32.6417 22.3976 32.6495 22.3727L37.8893 5.79895C39.2708 1.42919 43.9331 -0.993277 48.3029 0.388222C52.6727 1.76972 55.0951 6.43204 53.7136 10.8018L51.9059 16.5198L51.932 8.44082C51.9339 8.35902 51.9341 8.27737 51.9328 8.19593L51.9329 8.15252L51.9319 8.15482C51.8716 5.60749 50.2148 3.26604 47.6495 2.45504Z" fill="black"/>
</g>
<defs>
<clipPath id="clip0">
<rect width="60" height="60" fill="white"/>
</clipPath>
</defs>
</svg>
