<svg width="60" height="60" viewBox="0 0 60 60" fill="none" xmlns="http://www.w3.org/2000/svg">
<path d="M21.4858 8.13727L22.1155 11.7996L56.7483 11.7996C57.6004 11.7996 58.4177 12.1381 59.0202 12.7406C59.6228 13.3432 59.9613 14.1605 59.9613 15.0126V51.1793C59.9613 52.0314 59.6228 52.8487 59.0202 53.4513C58.4177 54.0538 57.6004 54.3923 56.7483 54.3923H3.25505C2.40289 54.3923 1.58564 54.0538 0.983074 53.4513C0.380509 52.8487 0.0419922 52.0314 0.0419922 51.1793V11.7996L0.587126 8.13727C0.71566 7.39051 1.10398 6.7132 1.68349 6.225C2.263 5.73679 2.99641 5.46911 3.75415 5.46924H18.3188C19.0765 5.46911 19.8099 5.73679 20.3894 6.225C20.9689 6.7132 21.3573 7.39051 21.4858 8.13727Z" fill="#00A82D"/>
<path d="M21.4858 8.13727L22.1155 11.7996L0.0419922 11.7996L0.587126 8.13727C0.71566 7.39051 1.10398 6.7132 1.68349 6.225C2.263 5.73679 2.99641 5.46911 3.75415 5.46924H18.3188C19.0765 5.46911 19.8099 5.73679 20.3894 6.225C20.9689 6.7132 21.3573 7.39051 21.4858 8.13727Z" fill="#1A1A1A"/>
<mask id="mask0" mask-type="alpha" maskUnits="userSpaceOnUse" x="0" y="11" width="60" height="44">
<path d="M6.40909 11.8125L28.5672 11.8125H56.7868C57.639 11.8125 58.4563 12.151 59.0588 12.7536C59.6614 13.3561 59.9999 14.1734 59.9999 15.0256V51.1922C59.9999 52.0444 59.6614 52.8616 59.0588 53.4642C58.4563 54.0668 57.639 54.4053 56.7868 54.4053H3.29362C2.44147 54.4053 1.62421 54.0668 1.02165 53.4642C0.419083 52.8616 0.0805664 52.0444 0.0805664 51.1922V15.0256C0.0805664 14.1734 0.419083 13.3561 1.02165 12.7536C1.62421 12.151 2.44147 11.8125 3.29362 11.8125L6.40909 11.8125Z" fill="#C4C4C4"/>
</mask>
<g mask="url(#mask0)">
<g opacity="0.3">
<path fill-rule="evenodd" clip-rule="evenodd" d="M42.1401 14.6693C42.0394 14.6693 41.9376 14.631 41.861 14.5544L41.3301 14.0213C41.1758 13.868 41.1758 13.6185 41.3301 13.463C41.4834 13.3098 41.734 13.3098 41.8884 13.463L42.1401 13.717L43.0334 12.8238C43.1877 12.6694 43.4373 12.6694 43.5916 12.8238C43.746 12.9781 43.746 13.2288 43.5916 13.382L42.4193 14.5544C42.3426 14.631 42.2419 14.6693 42.1401 14.6693Z" fill="white"/>
<path fill-rule="evenodd" clip-rule="evenodd" d="M42.1401 20.9022C42.0394 20.9022 41.9376 20.8639 41.861 20.7873L41.3301 20.2542C41.1758 20.101 41.1758 19.8514 41.3301 19.6959C41.4834 19.5427 41.734 19.5427 41.8884 19.6959L42.1401 19.9499L43.0334 19.0567C43.1877 18.9023 43.4373 18.9023 43.5916 19.0567C43.746 19.211 43.746 19.4617 43.5916 19.6149L42.4193 20.7873C42.3426 20.8639 42.2419 20.9022 42.1401 20.9022Z" fill="white"/>
<path fill-rule="evenodd" clip-rule="evenodd" d="M42.1401 27.1346C42.0394 27.1346 41.9376 27.0963 41.861 27.0197L41.3301 26.4866C41.1758 26.3334 41.1758 26.0838 41.3301 25.9284C41.4834 25.7751 41.734 25.7751 41.8884 25.9284L42.1401 26.1823L43.0334 25.2891C43.1877 25.1348 43.4373 25.1348 43.5916 25.2891C43.746 25.4434 43.746 25.6941 43.5916 25.8474L42.4193 27.0197C42.3426 27.0963 42.2419 27.1346 42.1401 27.1346Z" fill="white"/>
<path fill-rule="evenodd" clip-rule="evenodd" d="M42.1401 33.3676C42.0394 33.3676 41.9376 33.3292 41.861 33.2526L41.3301 32.7195C41.1758 32.5663 41.1758 32.3167 41.3301 32.1613C41.4834 32.008 41.734 32.008 41.8884 32.1613L42.1401 32.4152L43.0334 31.522C43.1877 31.3677 43.4373 31.3677 43.5916 31.522C43.746 31.6764 43.746 31.927 43.5916 32.0803L42.4193 33.2526C42.3426 33.3292 42.2419 33.3676 42.1401 33.3676Z" fill="white"/>
<path fill-rule="evenodd" clip-rule="evenodd" d="M42.1401 39.6C42.0394 39.6 41.9376 39.5617 41.861 39.485L41.3301 38.952C41.1758 38.7987 41.1758 38.5491 41.3301 38.3937C41.4834 38.2404 41.734 38.2404 41.8884 38.3937L42.1401 38.6476L43.0334 37.7544C43.1877 37.6001 43.4373 37.6001 43.5916 37.7544C43.746 37.9088 43.746 38.1594 43.5916 38.3127L42.4193 39.485C42.3426 39.5617 42.2419 39.6 42.1401 39.6Z" fill="white"/>
<path fill-rule="evenodd" clip-rule="evenodd" d="M42.1401 45.8324C42.0394 45.8324 41.9376 45.7941 41.861 45.7175L41.3301 45.1844C41.1758 45.0311 41.1758 44.7816 41.3301 44.6261C41.4834 44.4729 41.734 44.4729 41.8884 44.6261L42.1401 44.8801L43.0334 43.9869C43.1877 43.8325 43.4373 43.8325 43.5916 43.9869C43.746 44.1412 43.746 44.3919 43.5916 44.5451L42.4193 45.7175C42.3426 45.7941 42.2419 45.8324 42.1401 45.8324Z" fill="white"/>
<path fill-rule="evenodd" clip-rule="evenodd" d="M42.1401 52.0648C42.0394 52.0648 41.9376 52.0265 41.861 51.9499L41.3301 51.4168C41.1758 51.2636 41.1758 51.014 41.3301 50.8585C41.4834 50.7053 41.734 50.7053 41.8884 50.8585L42.1401 51.1125L43.0334 50.2193C43.1877 50.0649 43.4373 50.0649 43.5916 50.2193C43.746 50.3736 43.746 50.6243 43.5916 50.7775L42.4193 51.9499C42.3426 52.0265 42.2419 52.0648 42.1401 52.0648Z" fill="white"/>
<path fill-rule="evenodd" clip-rule="evenodd" d="M35.9063 17.7855C35.8055 17.7855 35.7037 17.7472 35.6271 17.6706L35.0962 17.1375C34.9419 16.9843 34.9419 16.7347 35.0962 16.5792C35.2495 16.426 35.5001 16.426 35.6545 16.5792L35.9063 16.8332L36.7995 15.94C36.9538 15.7856 37.2034 15.7856 37.3577 15.94C37.5121 16.0943 37.5121 16.345 37.3577 16.4982L36.1854 17.6706C36.1088 17.7472 36.0081 17.7855 35.9063 17.7855Z" fill="white"/>
<path fill-rule="evenodd" clip-rule="evenodd" d="M35.9063 24.0189C35.8055 24.0189 35.7037 23.9806 35.6271 23.904L35.0962 23.3709C34.9419 23.2177 34.9419 22.9681 35.0962 22.8126C35.2495 22.6594 35.5001 22.6594 35.6545 22.8126L35.9063 23.0666L36.7995 22.1734C36.9538 22.019 37.2034 22.019 37.3577 22.1734C37.5121 22.3277 37.5121 22.5784 37.3577 22.7316L36.1854 23.904C36.1088 23.9806 36.0081 24.0189 35.9063 24.0189Z" fill="white"/>
<path fill-rule="evenodd" clip-rule="evenodd" d="M35.9063 30.2513C35.8055 30.2513 35.7037 30.213 35.6271 30.1364L35.0962 29.6033C34.9419 29.4501 34.9419 29.2005 35.0962 29.0451C35.2495 28.8918 35.5001 28.8918 35.6545 29.0451L35.9063 29.299L36.7995 28.4058C36.9538 28.2515 37.2034 28.2515 37.3577 28.4058C37.5121 28.5601 37.5121 28.8108 37.3577 28.9641L36.1854 30.1364C36.1088 30.213 36.0081 30.2513 35.9063 30.2513Z" fill="white"/>
<path fill-rule="evenodd" clip-rule="evenodd" d="M35.9063 36.4833C35.8055 36.4833 35.7037 36.445 35.6271 36.3683L35.0962 35.8353C34.9419 35.682 34.9419 35.4324 35.0962 35.277C35.2495 35.1237 35.5001 35.1237 35.6545 35.277L35.9063 35.531L36.7995 34.6377C36.9538 34.4834 37.2034 34.4834 37.3577 34.6377C37.5121 34.7921 37.5121 35.0427 37.3577 35.196L36.1854 36.3683C36.1088 36.445 36.0081 36.4833 35.9063 36.4833Z" fill="white"/>
<path fill-rule="evenodd" clip-rule="evenodd" d="M35.9063 42.7162C35.8055 42.7162 35.7037 42.6779 35.6271 42.6013L35.0962 42.0682C34.9419 41.9149 34.9419 41.6653 35.0962 41.5099C35.2495 41.3567 35.5001 41.3567 35.6545 41.5099L35.9063 41.7639L36.7995 40.8706C36.9538 40.7163 37.2034 40.7163 37.3577 40.8706C37.5121 41.025 37.5121 41.2757 37.3577 41.4289L36.1854 42.6013C36.1088 42.6779 36.0081 42.7162 35.9063 42.7162Z" fill="white"/>
<path fill-rule="evenodd" clip-rule="evenodd" d="M35.9063 48.9486C35.8055 48.9486 35.7037 48.9103 35.6271 48.8337L35.0962 48.3006C34.9419 48.1473 34.9419 47.8978 35.0962 47.7423C35.2495 47.5891 35.5001 47.5891 35.6545 47.7423L35.9063 47.9963L36.7995 47.1031C36.9538 46.9487 37.2034 46.9487 37.3577 47.1031C37.5121 47.2574 37.5121 47.5081 37.3577 47.6613L36.1854 48.8337C36.1088 48.9103 36.0081 48.9486 35.9063 48.9486Z" fill="white"/>
<path fill-rule="evenodd" clip-rule="evenodd" d="M29.6743 14.6693C29.5736 14.6693 29.4718 14.631 29.3952 14.5544L28.8643 14.0213C28.7099 13.868 28.7099 13.6185 28.8643 13.463C29.0175 13.3098 29.2682 13.3098 29.4226 13.463L29.6743 13.717L30.5675 12.8238C30.7219 12.6694 30.9715 12.6694 31.1258 12.8238C31.2801 12.9781 31.2801 13.2288 31.1258 13.382L29.9535 14.5544C29.8768 14.631 29.7761 14.6693 29.6743 14.6693Z" fill="white"/>
<path fill-rule="evenodd" clip-rule="evenodd" d="M29.6743 20.9022C29.5736 20.9022 29.4718 20.8639 29.3952 20.7873L28.8643 20.2542C28.7099 20.101 28.7099 19.8514 28.8643 19.6959C29.0175 19.5427 29.2682 19.5427 29.4226 19.6959L29.6743 19.9499L30.5675 19.0567C30.7219 18.9023 30.9715 18.9023 31.1258 19.0567C31.2801 19.211 31.2801 19.4617 31.1258 19.6149L29.9535 20.7873C29.8768 20.8639 29.7761 20.9022 29.6743 20.9022Z" fill="white"/>
<path fill-rule="evenodd" clip-rule="evenodd" d="M29.6743 27.1346C29.5736 27.1346 29.4718 27.0963 29.3952 27.0197L28.8643 26.4866C28.7099 26.3334 28.7099 26.0838 28.8643 25.9284C29.0175 25.7751 29.2682 25.7751 29.4226 25.9284L29.6743 26.1823L30.5675 25.2891C30.7219 25.1348 30.9715 25.1348 31.1258 25.2891C31.2801 25.4434 31.2801 25.6941 31.1258 25.8474L29.9535 27.0197C29.8768 27.0963 29.7761 27.1346 29.6743 27.1346Z" fill="white"/>
<path fill-rule="evenodd" clip-rule="evenodd" d="M29.6743 33.3676C29.5736 33.3676 29.4718 33.3292 29.3952 33.2526L28.8643 32.7195C28.7099 32.5663 28.7099 32.3167 28.8643 32.1613C29.0175 32.008 29.2682 32.008 29.4226 32.1613L29.6743 32.4152L30.5675 31.522C30.7219 31.3677 30.9715 31.3677 31.1258 31.522C31.2801 31.6764 31.2801 31.927 31.1258 32.0803L29.9535 33.2526C29.8768 33.3292 29.7761 33.3676 29.6743 33.3676Z" fill="white"/>
<path fill-rule="evenodd" clip-rule="evenodd" d="M29.6743 39.6C29.5736 39.6 29.4718 39.5617 29.3952 39.485L28.8643 38.952C28.7099 38.7987 28.7099 38.5491 28.8643 38.3937C29.0175 38.2404 29.2682 38.2404 29.4226 38.3937L29.6743 38.6476L30.5675 37.7544C30.7219 37.6001 30.9715 37.6001 31.1258 37.7544C31.2801 37.9088 31.2801 38.1594 31.1258 38.3127L29.9535 39.485C29.8768 39.5617 29.7761 39.6 29.6743 39.6Z" fill="white"/>
<path fill-rule="evenodd" clip-rule="evenodd" d="M29.6743 45.8324C29.5736 45.8324 29.4718 45.7941 29.3952 45.7175L28.8643 45.1844C28.7099 45.0311 28.7099 44.7816 28.8643 44.6261C29.0175 44.4729 29.2682 44.4729 29.4226 44.6261L29.6743 44.8801L30.5675 43.9869C30.7219 43.8325 30.9715 43.8325 31.1258 43.9869C31.2801 44.1412 31.2801 44.3919 31.1258 44.5451L29.9535 45.7175C29.8768 45.7941 29.7761 45.8324 29.6743 45.8324Z" fill="white"/>
<path fill-rule="evenodd" clip-rule="evenodd" d="M29.6743 52.0648C29.5736 52.0648 29.4718 52.0265 29.3952 51.9499L28.8643 51.4168C28.7099 51.2636 28.7099 51.014 28.8643 50.8585C29.0175 50.7053 29.2682 50.7053 29.4226 50.8585L29.6743 51.1125L30.5675 50.2193C30.7219 50.0649 30.9715 50.0649 31.1258 50.2193C31.2801 50.3736 31.2801 50.6243 31.1258 50.7775L29.9535 51.9499C29.8768 52.0265 29.7761 52.0648 29.6743 52.0648Z" fill="white"/>
<path fill-rule="evenodd" clip-rule="evenodd" d="M23.4414 17.7855C23.3407 17.7855 23.2389 17.7472 23.1623 17.6706L22.6314 17.1375C22.477 16.9843 22.477 16.7347 22.6314 16.5792C22.7846 16.426 23.0353 16.426 23.1896 16.5792L23.4414 16.8332L24.3346 15.94C24.489 15.7856 24.7386 15.7856 24.8929 15.94C25.0472 16.0943 25.0472 16.345 24.8929 16.4982L23.7205 17.6706C23.6439 17.7472 23.5432 17.7855 23.4414 17.7855Z" fill="white"/>
<path fill-rule="evenodd" clip-rule="evenodd" d="M23.4414 24.0189C23.3407 24.0189 23.2389 23.9806 23.1623 23.904L22.6314 23.3709C22.477 23.2177 22.477 22.9681 22.6314 22.8126C22.7846 22.6594 23.0353 22.6594 23.1896 22.8126L23.4414 23.0666L24.3346 22.1734C24.489 22.019 24.7386 22.019 24.8929 22.1734C25.0472 22.3277 25.0472 22.5784 24.8929 22.7316L23.7205 23.904C23.6439 23.9806 23.5432 24.0189 23.4414 24.0189Z" fill="white"/>
<path fill-rule="evenodd" clip-rule="evenodd" d="M23.4414 30.2513C23.3407 30.2513 23.2389 30.213 23.1623 30.1364L22.6314 29.6033C22.477 29.4501 22.477 29.2005 22.6314 29.0451C22.7846 28.8918 23.0353 28.8918 23.1896 29.0451L23.4414 29.299L24.3346 28.4058C24.489 28.2515 24.7386 28.2515 24.8929 28.4058C25.0472 28.5601 25.0472 28.8108 24.8929 28.9641L23.7205 30.1364C23.6439 30.213 23.5432 30.2513 23.4414 30.2513Z" fill="white"/>
<path fill-rule="evenodd" clip-rule="evenodd" d="M23.4414 36.4833C23.3407 36.4833 23.2389 36.445 23.1623 36.3683L22.6314 35.8353C22.477 35.682 22.477 35.4324 22.6314 35.277C22.7846 35.1237 23.0353 35.1237 23.1896 35.277L23.4414 35.531L24.3346 34.6377C24.489 34.4834 24.7386 34.4834 24.8929 34.6377C25.0472 34.7921 25.0472 35.0427 24.8929 35.196L23.7205 36.3683C23.6439 36.445 23.5432 36.4833 23.4414 36.4833Z" fill="white"/>
<path fill-rule="evenodd" clip-rule="evenodd" d="M23.4414 42.7162C23.3407 42.7162 23.2389 42.6779 23.1623 42.6013L22.6314 42.0682C22.477 41.9149 22.477 41.6653 22.6314 41.5099C22.7846 41.3567 23.0353 41.3567 23.1896 41.5099L23.4414 41.7639L24.3346 40.8706C24.489 40.7163 24.7386 40.7163 24.8929 40.8706C25.0472 41.025 25.0472 41.2757 24.8929 41.4289L23.7205 42.6013C23.6439 42.6779 23.5432 42.7162 23.4414 42.7162Z" fill="white"/>
<path fill-rule="evenodd" clip-rule="evenodd" d="M23.4414 48.9486C23.3407 48.9486 23.2389 48.9103 23.1623 48.8337L22.6314 48.3006C22.477 48.1473 22.477 47.8978 22.6314 47.7423C22.7846 47.5891 23.0353 47.5891 23.1896 47.7423L23.4414 47.9963L24.3346 47.1031C24.489 46.9487 24.7386 46.9487 24.8929 47.1031C25.0472 47.2574 25.0472 47.5081 24.8929 47.6613L23.7205 48.8337C23.6439 48.9103 23.5432 48.9486 23.4414 48.9486Z" fill="white"/>
<path fill-rule="evenodd" clip-rule="evenodd" d="M17.2087 14.6693C17.108 14.6693 17.0062 14.631 16.9296 14.5544L16.3987 14.0213C16.2444 13.868 16.2444 13.6185 16.3987 13.463C16.552 13.3098 16.8026 13.3098 16.957 13.463L17.2087 13.717L18.102 12.8238C18.2563 12.6694 18.5059 12.6694 18.6602 12.8238C18.8146 12.9781 18.8146 13.2288 18.6602 13.382L17.4879 14.5544C17.4113 14.631 17.3105 14.6693 17.2087 14.6693Z" fill="white"/>
<path fill-rule="evenodd" clip-rule="evenodd" d="M17.209 20.9022C17.1083 20.9022 17.0065 20.8639 16.9299 20.7873L16.399 20.2542C16.2446 20.101 16.2446 19.8514 16.399 19.6959C16.5522 19.5427 16.8029 19.5427 16.9572 19.6959L17.209 19.9499L18.1022 19.0567C18.2566 18.9023 18.5061 18.9023 18.6605 19.0567C18.8148 19.211 18.8148 19.4617 18.6605 19.6149L17.4881 20.7873C17.4115 20.8639 17.3108 20.9022 17.209 20.9022Z" fill="white"/>
<path fill-rule="evenodd" clip-rule="evenodd" d="M17.209 27.1346C17.1083 27.1346 17.0065 27.0963 16.9299 27.0197L16.399 26.4866C16.2446 26.3334 16.2446 26.0838 16.399 25.9284C16.5522 25.7751 16.8029 25.7751 16.9572 25.9284L17.209 26.1823L18.1022 25.2891C18.2566 25.1348 18.5061 25.1348 18.6605 25.2891C18.8148 25.4434 18.8148 25.6941 18.6605 25.8474L17.4881 27.0197C17.4115 27.0963 17.3108 27.1346 17.209 27.1346Z" fill="white"/>
<path fill-rule="evenodd" clip-rule="evenodd" d="M17.209 33.3676C17.1083 33.3676 17.0065 33.3292 16.9299 33.2526L16.399 32.7195C16.2446 32.5663 16.2446 32.3167 16.399 32.1613C16.5522 32.008 16.8029 32.008 16.9572 32.1613L17.209 32.4152L18.1022 31.522C18.2566 31.3677 18.5061 31.3677 18.6605 31.522C18.8148 31.6764 18.8148 31.927 18.6605 32.0803L17.4881 33.2526C17.4115 33.3292 17.3108 33.3676 17.209 33.3676Z" fill="white"/>
<path fill-rule="evenodd" clip-rule="evenodd" d="M17.209 39.6C17.1083 39.6 17.0065 39.5617 16.9299 39.485L16.399 38.952C16.2446 38.7987 16.2446 38.5491 16.399 38.3937C16.5522 38.2404 16.8029 38.2404 16.9572 38.3937L17.209 38.6476L18.1022 37.7544C18.2566 37.6001 18.5061 37.6001 18.6605 37.7544C18.8148 37.9088 18.8148 38.1594 18.6605 38.3127L17.4881 39.485C17.4115 39.5617 17.3108 39.6 17.209 39.6Z" fill="white"/>
<path fill-rule="evenodd" clip-rule="evenodd" d="M17.209 45.8324C17.1083 45.8324 17.0065 45.7941 16.9299 45.7175L16.399 45.1844C16.2446 45.0311 16.2446 44.7816 16.399 44.6261C16.5522 44.4729 16.8029 44.4729 16.9572 44.6261L17.209 44.8801L18.1022 43.9869C18.2566 43.8325 18.5061 43.8325 18.6605 43.9869C18.8148 44.1412 18.8148 44.3919 18.6605 44.5451L17.4881 45.7175C17.4115 45.7941 17.3108 45.8324 17.209 45.8324Z" fill="white"/>
<path fill-rule="evenodd" clip-rule="evenodd" d="M17.209 52.0648C17.1083 52.0648 17.0065 52.0265 16.9299 51.9499L16.399 51.4168C16.2446 51.2636 16.2446 51.014 16.399 50.8585C16.5522 50.7053 16.8029 50.7053 16.9572 50.8585L17.209 51.1125L18.1022 50.2193C18.2566 50.0649 18.5061 50.0649 18.6605 50.2193C18.8148 50.3736 18.8148 50.6243 18.6605 50.7775L17.4881 51.9499C17.4115 52.0265 17.3108 52.0648 17.209 52.0648Z" fill="white"/>
<path fill-rule="evenodd" clip-rule="evenodd" d="M10.9775 17.7855C10.8768 17.7855 10.775 17.7472 10.6984 17.6706L10.1675 17.1375C10.0132 16.9843 10.0132 16.7347 10.1675 16.5792C10.3208 16.426 10.5714 16.426 10.7258 16.5792L10.9775 16.8332L11.8708 15.94C12.0251 15.7856 12.2747 15.7856 12.429 15.94C12.5834 16.0943 12.5834 16.345 12.429 16.4982L11.2567 17.6706C11.1801 17.7472 11.0793 17.7855 10.9775 17.7855Z" fill="white"/>
<path fill-rule="evenodd" clip-rule="evenodd" d="M10.9775 24.0189C10.8768 24.0189 10.775 23.9806 10.6984 23.904L10.1675 23.3709C10.0132 23.2177 10.0132 22.9681 10.1675 22.8126C10.3208 22.6594 10.5714 22.6594 10.7258 22.8126L10.9775 23.0666L11.8708 22.1734C12.0251 22.019 12.2747 22.019 12.429 22.1734C12.5834 22.3277 12.5834 22.5784 12.429 22.7316L11.2567 23.904C11.1801 23.9806 11.0793 24.0189 10.9775 24.0189Z" fill="white"/>
<path fill-rule="evenodd" clip-rule="evenodd" d="M10.9775 30.2513C10.8768 30.2513 10.775 30.213 10.6984 30.1364L10.1675 29.6033C10.0132 29.4501 10.0132 29.2005 10.1675 29.0451C10.3208 28.8918 10.5714 28.8918 10.7258 29.0451L10.9775 29.299L11.8708 28.4058C12.0251 28.2515 12.2747 28.2515 12.429 28.4058C12.5834 28.5601 12.5834 28.8108 12.429 28.9641L11.2567 30.1364C11.1801 30.213 11.0793 30.2513 10.9775 30.2513Z" fill="white"/>
<path fill-rule="evenodd" clip-rule="evenodd" d="M10.9775 36.4833C10.8768 36.4833 10.775 36.445 10.6984 36.3683L10.1675 35.8353C10.0132 35.682 10.0132 35.4324 10.1675 35.277C10.3208 35.1237 10.5714 35.1237 10.7258 35.277L10.9775 35.531L11.8708 34.6377C12.0251 34.4834 12.2747 34.4834 12.429 34.6377C12.5834 34.7921 12.5834 35.0427 12.429 35.196L11.2567 36.3683C11.1801 36.445 11.0793 36.4833 10.9775 36.4833Z" fill="white"/>
<path fill-rule="evenodd" clip-rule="evenodd" d="M10.9775 42.7162C10.8768 42.7162 10.775 42.6779 10.6984 42.6013L10.1675 42.0682C10.0132 41.9149 10.0132 41.6653 10.1675 41.5099C10.3208 41.3567 10.5714 41.3567 10.7258 41.5099L10.9775 41.7639L11.8708 40.8706C12.0251 40.7163 12.2747 40.7163 12.429 40.8706C12.5834 41.025 12.5834 41.2757 12.429 41.4289L11.2567 42.6013C11.1801 42.6779 11.0793 42.7162 10.9775 42.7162Z" fill="white"/>
<path fill-rule="evenodd" clip-rule="evenodd" d="M10.9775 48.9486C10.8768 48.9486 10.775 48.9103 10.6984 48.8337L10.1675 48.3006C10.0132 48.1473 10.0132 47.8978 10.1675 47.7423C10.3208 47.5891 10.5714 47.5891 10.7258 47.7423L10.9775 47.9963L11.8708 47.1031C12.0251 46.9487 12.2747 46.9487 12.429 47.1031C12.5834 47.2574 12.5834 47.5081 12.429 47.6613L11.2567 48.8337C11.1801 48.9103 11.0793 48.9486 10.9775 48.9486Z" fill="white"/>
<path fill-rule="evenodd" clip-rule="evenodd" d="M4.74439 14.6693C4.64368 14.6693 4.54188 14.631 4.46526 14.5544L3.93436 14.0213C3.78002 13.868 3.78002 13.6185 3.93436 13.463C4.08761 13.3098 4.33828 13.3098 4.49262 13.463L4.74439 13.717L5.63761 12.8238C5.79195 12.6694 6.04153 12.6694 6.19587 12.8238C6.35022 12.9781 6.35022 13.2288 6.19587 13.382L5.02352 14.5544C4.9469 14.631 4.84619 14.6693 4.74439 14.6693Z" fill="white"/>
<path fill-rule="evenodd" clip-rule="evenodd" d="M4.74463 20.9022C4.64393 20.9022 4.54213 20.8639 4.4655 20.7873L3.93461 20.2542C3.78026 20.101 3.78026 19.8514 3.93461 19.6959C4.08785 19.5427 4.33852 19.5427 4.49287 19.6959L4.74463 19.9499L5.63785 19.0567C5.7922 18.9023 6.04177 18.9023 6.19612 19.0567C6.35046 19.211 6.35046 19.4617 6.19612 19.6149L5.02376 20.7873C4.94714 20.8639 4.84643 20.9022 4.74463 20.9022Z" fill="white"/>
<path fill-rule="evenodd" clip-rule="evenodd" d="M4.74463 27.1346C4.64393 27.1346 4.54213 27.0963 4.4655 27.0197L3.93461 26.4866C3.78026 26.3334 3.78026 26.0838 3.93461 25.9284C4.08785 25.7751 4.33852 25.7751 4.49287 25.9284L4.74463 26.1823L5.63785 25.2891C5.7922 25.1348 6.04177 25.1348 6.19612 25.2891C6.35046 25.4434 6.35046 25.6941 6.19612 25.8474L5.02376 27.0197C4.94714 27.0963 4.84643 27.1346 4.74463 27.1346Z" fill="white"/>
<path fill-rule="evenodd" clip-rule="evenodd" d="M4.74463 33.3676C4.64393 33.3676 4.54213 33.3292 4.4655 33.2526L3.93461 32.7195C3.78026 32.5663 3.78026 32.3167 3.93461 32.1613C4.08785 32.008 4.33852 32.008 4.49287 32.1613L4.74463 32.4152L5.63785 31.522C5.7922 31.3677 6.04177 31.3677 6.19612 31.522C6.35046 31.6764 6.35046 31.927 6.19612 32.0803L5.02376 33.2526C4.94714 33.3292 4.84643 33.3676 4.74463 33.3676Z" fill="white"/>
<path fill-rule="evenodd" clip-rule="evenodd" d="M4.74463 39.6C4.64393 39.6 4.54213 39.5617 4.4655 39.485L3.93461 38.952C3.78026 38.7987 3.78026 38.5491 3.93461 38.3937C4.08785 38.2404 4.33852 38.2404 4.49287 38.3937L4.74463 38.6476L5.63785 37.7544C5.7922 37.6001 6.04177 37.6001 6.19612 37.7544C6.35046 37.9088 6.35046 38.1594 6.19612 38.3127L5.02376 39.485C4.94714 39.5617 4.84643 39.6 4.74463 39.6Z" fill="white"/>
<path fill-rule="evenodd" clip-rule="evenodd" d="M4.74463 45.8324C4.64393 45.8324 4.54213 45.7941 4.4655 45.7175L3.93461 45.1844C3.78026 45.0311 3.78026 44.7816 3.93461 44.6261C4.08785 44.4729 4.33852 44.4729 4.49287 44.6261L4.74463 44.8801L5.63785 43.9869C5.7922 43.8325 6.04177 43.8325 6.19612 43.9869C6.35046 44.1412 6.35046 44.3919 6.19612 44.5451L5.02376 45.7175C4.94714 45.7941 4.84643 45.8324 4.74463 45.8324Z" fill="white"/>
<path fill-rule="evenodd" clip-rule="evenodd" d="M4.74463 52.0648C4.64393 52.0648 4.54213 52.0265 4.4655 51.9499L3.93461 51.4168C3.78026 51.2636 3.78026 51.014 3.93461 50.8585C4.08785 50.7053 4.33852 50.7053 4.49287 50.8585L4.74463 51.1125L5.63785 50.2193C5.7922 50.0649 6.04177 50.0649 6.19612 50.2193C6.35046 50.3736 6.35046 50.6243 6.19612 50.7775L5.02376 51.9499C4.94714 52.0265 4.84643 52.0648 4.74463 52.0648Z" fill="white"/>
<path fill-rule="evenodd" clip-rule="evenodd" d="M-1.48877 17.7855C-1.58947 17.7855 -1.69127 17.7472 -1.7679 17.6706L-2.29879 17.1375C-2.45314 16.9843 -2.45314 16.7347 -2.29879 16.5792C-2.14554 16.426 -1.89487 16.426 -1.74053 16.5792L-1.48877 16.8332L-0.595545 15.94C-0.441201 15.7856 -0.191625 15.7856 -0.037282 15.94C0.117061 16.0943 0.117061 16.345 -0.037282 16.4982L-1.20963 17.6706C-1.28626 17.7472 -1.38696 17.7855 -1.48877 17.7855Z" fill="white"/>
<path fill-rule="evenodd" clip-rule="evenodd" d="M-1.48877 24.0189C-1.58947 24.0189 -1.69127 23.9806 -1.7679 23.904L-2.29879 23.3709C-2.45314 23.2177 -2.45314 22.9681 -2.29879 22.8126C-2.14554 22.6594 -1.89487 22.6594 -1.74053 22.8126L-1.48877 23.0666L-0.595545 22.1734C-0.441201 22.019 -0.191625 22.019 -0.037282 22.1734C0.117061 22.3277 0.117061 22.5784 -0.037282 22.7316L-1.20963 23.904C-1.28626 23.9806 -1.38696 24.0189 -1.48877 24.0189Z" fill="white"/>
<path fill-rule="evenodd" clip-rule="evenodd" d="M-1.48877 30.2513C-1.58947 30.2513 -1.69127 30.213 -1.7679 30.1364L-2.29879 29.6033C-2.45314 29.4501 -2.45314 29.2005 -2.29879 29.0451C-2.14554 28.8918 -1.89487 28.8918 -1.74053 29.0451L-1.48877 29.299L-0.595545 28.4058C-0.441201 28.2515 -0.191625 28.2515 -0.037282 28.4058C0.117061 28.5601 0.117061 28.8108 -0.037282 28.9641L-1.20963 30.1364C-1.28626 30.213 -1.38696 30.2513 -1.48877 30.2513Z" fill="white"/>
<path fill-rule="evenodd" clip-rule="evenodd" d="M-1.48877 36.4833C-1.58947 36.4833 -1.69127 36.445 -1.7679 36.3683L-2.29879 35.8353C-2.45314 35.682 -2.45314 35.4324 -2.29879 35.277C-2.14554 35.1237 -1.89487 35.1237 -1.74053 35.277L-1.48877 35.531L-0.595545 34.6377C-0.441201 34.4834 -0.191625 34.4834 -0.037282 34.6377C0.117061 34.7921 0.117061 35.0427 -0.037282 35.196L-1.20963 36.3683C-1.28626 36.445 -1.38696 36.4833 -1.48877 36.4833Z" fill="white"/>
<path fill-rule="evenodd" clip-rule="evenodd" d="M-1.48877 42.7162C-1.58947 42.7162 -1.69127 42.6779 -1.7679 42.6013L-2.29879 42.0682C-2.45314 41.9149 -2.45314 41.6653 -2.29879 41.5099C-2.14554 41.3567 -1.89487 41.3567 -1.74053 41.5099L-1.48877 41.7639L-0.595545 40.8706C-0.441201 40.7163 -0.191625 40.7163 -0.037282 40.8706C0.117061 41.025 0.117061 41.2757 -0.037282 41.4289L-1.20963 42.6013C-1.28626 42.6779 -1.38696 42.7162 -1.48877 42.7162Z" fill="white"/>
<path fill-rule="evenodd" clip-rule="evenodd" d="M-1.48877 48.9486C-1.58947 48.9486 -1.69127 48.9103 -1.7679 48.8337L-2.29879 48.3006C-2.45314 48.1473 -2.45314 47.8978 -2.29879 47.7423C-2.14554 47.5891 -1.89487 47.5891 -1.74053 47.7423L-1.48877 47.9963L-0.595545 47.1031C-0.441201 46.9487 -0.191625 46.9487 -0.037282 47.1031C0.117061 47.2574 0.117061 47.5081 -0.037282 47.6613L-1.20963 48.8337C-1.28626 48.9103 -1.38696 48.9486 -1.48877 48.9486Z" fill="white"/>
</g>
<g opacity="0.3">
<path fill-rule="evenodd" clip-rule="evenodd" d="M54.9641 14.6693C54.8634 14.6693 54.7616 14.631 54.685 14.5544L54.1541 14.0213C53.9997 13.868 53.9997 13.6185 54.1541 13.463C54.3073 13.3098 54.558 13.3098 54.7124 13.463L54.9641 13.717L55.8573 12.8238C56.0117 12.6694 56.2613 12.6694 56.4156 12.8238C56.5699 12.9781 56.5699 13.2288 56.4156 13.382L55.2432 14.5544C55.1666 14.631 55.0659 14.6693 54.9641 14.6693Z" fill="white"/>
<path fill-rule="evenodd" clip-rule="evenodd" d="M54.9644 20.9022C54.8637 20.9022 54.7619 20.8639 54.6852 20.7873L54.1543 20.2542C54 20.101 54 19.8514 54.1543 19.6959C54.3076 19.5427 54.5583 19.5427 54.7126 19.6959L54.9644 19.9499L55.8576 19.0567C56.0119 18.9023 56.2615 18.9023 56.4158 19.0567C56.5702 19.211 56.5702 19.4617 56.4158 19.6149L55.2435 20.7873C55.1669 20.8639 55.0662 20.9022 54.9644 20.9022Z" fill="white"/>
<path fill-rule="evenodd" clip-rule="evenodd" d="M54.9644 27.1346C54.8637 27.1346 54.7619 27.0963 54.6852 27.0197L54.1543 26.4866C54 26.3334 54 26.0838 54.1543 25.9284C54.3076 25.7751 54.5583 25.7751 54.7126 25.9284L54.9644 26.1823L55.8576 25.2891C56.0119 25.1348 56.2615 25.1348 56.4158 25.2891C56.5702 25.4434 56.5702 25.6941 56.4158 25.8474L55.2435 27.0197C55.1669 27.0963 55.0662 27.1346 54.9644 27.1346Z" fill="white"/>
<path fill-rule="evenodd" clip-rule="evenodd" d="M54.9644 33.3676C54.8637 33.3676 54.7619 33.3292 54.6852 33.2526L54.1543 32.7195C54 32.5663 54 32.3167 54.1543 32.1613C54.3076 32.008 54.5583 32.008 54.7126 32.1613L54.9644 32.4152L55.8576 31.522C56.0119 31.3677 56.2615 31.3677 56.4158 31.522C56.5702 31.6764 56.5702 31.927 56.4158 32.0803L55.2435 33.2526C55.1669 33.3292 55.0662 33.3676 54.9644 33.3676Z" fill="white"/>
<path fill-rule="evenodd" clip-rule="evenodd" d="M54.9644 39.6C54.8637 39.6 54.7619 39.5617 54.6852 39.485L54.1543 38.952C54 38.7987 54 38.5491 54.1543 38.3937C54.3076 38.2404 54.5583 38.2404 54.7126 38.3937L54.9644 38.6476L55.8576 37.7544C56.0119 37.6001 56.2615 37.6001 56.4158 37.7544C56.5702 37.9088 56.5702 38.1594 56.4158 38.3127L55.2435 39.485C55.1669 39.5617 55.0662 39.6 54.9644 39.6Z" fill="white"/>
<path fill-rule="evenodd" clip-rule="evenodd" d="M54.9644 45.8324C54.8637 45.8324 54.7619 45.7941 54.6852 45.7175L54.1543 45.1844C54 45.0311 54 44.7816 54.1543 44.6261C54.3076 44.4729 54.5583 44.4729 54.7126 44.6261L54.9644 44.8801L55.8576 43.9869C56.0119 43.8325 56.2615 43.8325 56.4158 43.9869C56.5702 44.1412 56.5702 44.3919 56.4158 44.5451L55.2435 45.7175C55.1669 45.7941 55.0662 45.8324 54.9644 45.8324Z" fill="white"/>
<path fill-rule="evenodd" clip-rule="evenodd" d="M54.9644 52.0648C54.8637 52.0648 54.7619 52.0265 54.6852 51.9499L54.1543 51.4168C54 51.2636 54 51.014 54.1543 50.8585C54.3076 50.7053 54.5583 50.7053 54.7126 50.8585L54.9644 51.1125L55.8576 50.2193C56.0119 50.0649 56.2615 50.0649 56.4158 50.2193C56.5702 50.3736 56.5702 50.6243 56.4158 50.7775L55.2435 51.9499C55.1669 52.0265 55.0662 52.0648 54.9644 52.0648Z" fill="white"/>
<path fill-rule="evenodd" clip-rule="evenodd" d="M48.731 17.7855C48.6303 17.7855 48.5285 17.7472 48.4518 17.6706L47.9209 17.1375C47.7666 16.9843 47.7666 16.7347 47.9209 16.5792C48.0742 16.426 48.3249 16.426 48.4792 16.5792L48.731 16.8332L49.6242 15.94C49.7785 15.7856 50.0281 15.7856 50.1824 15.94C50.3368 16.0943 50.3368 16.345 50.1824 16.4982L49.0101 17.6706C48.9335 17.7472 48.8328 17.7855 48.731 17.7855Z" fill="white"/>
<path fill-rule="evenodd" clip-rule="evenodd" d="M48.731 24.0189C48.6303 24.0189 48.5285 23.9806 48.4518 23.904L47.9209 23.3709C47.7666 23.2177 47.7666 22.9681 47.9209 22.8126C48.0742 22.6594 48.3249 22.6594 48.4792 22.8126L48.731 23.0666L49.6242 22.1734C49.7785 22.019 50.0281 22.019 50.1824 22.1734C50.3368 22.3277 50.3368 22.5784 50.1824 22.7316L49.0101 23.904C48.9335 23.9806 48.8328 24.0189 48.731 24.0189Z" fill="white"/>
<path fill-rule="evenodd" clip-rule="evenodd" d="M48.731 30.2513C48.6303 30.2513 48.5285 30.213 48.4518 30.1364L47.9209 29.6033C47.7666 29.4501 47.7666 29.2005 47.9209 29.0451C48.0742 28.8918 48.3249 28.8918 48.4792 29.0451L48.731 29.299L49.6242 28.4058C49.7785 28.2515 50.0281 28.2515 50.1824 28.4058C50.3368 28.5601 50.3368 28.8108 50.1824 28.9641L49.0101 30.1364C48.9335 30.213 48.8328 30.2513 48.731 30.2513Z" fill="white"/>
<path fill-rule="evenodd" clip-rule="evenodd" d="M48.731 36.4833C48.6303 36.4833 48.5285 36.445 48.4518 36.3683L47.9209 35.8353C47.7666 35.682 47.7666 35.4324 47.9209 35.277C48.0742 35.1237 48.3249 35.1237 48.4792 35.277L48.731 35.531L49.6242 34.6377C49.7785 34.4834 50.0281 34.4834 50.1824 34.6377C50.3368 34.7921 50.3368 35.0427 50.1824 35.196L49.0101 36.3683C48.9335 36.445 48.8328 36.4833 48.731 36.4833Z" fill="white"/>
<path fill-rule="evenodd" clip-rule="evenodd" d="M48.731 42.7162C48.6303 42.7162 48.5285 42.6779 48.4518 42.6013L47.9209 42.0682C47.7666 41.9149 47.7666 41.6653 47.9209 41.5099C48.0742 41.3567 48.3249 41.3567 48.4792 41.5099L48.731 41.7639L49.6242 40.8706C49.7785 40.7163 50.0281 40.7163 50.1824 40.8706C50.3368 41.025 50.3368 41.2757 50.1824 41.4289L49.0101 42.6013C48.9335 42.6779 48.8328 42.7162 48.731 42.7162Z" fill="white"/>
<path fill-rule="evenodd" clip-rule="evenodd" d="M48.731 48.9486C48.6303 48.9486 48.5285 48.9103 48.4518 48.8337L47.9209 48.3006C47.7666 48.1473 47.7666 47.8978 47.9209 47.7423C48.0742 47.5891 48.3249 47.5891 48.4792 47.7423L48.731 47.9963L49.6242 47.1031C49.7785 46.9487 50.0281 46.9487 50.1824 47.1031C50.3368 47.2574 50.3368 47.5081 50.1824 47.6613L49.0101 48.8337C48.9335 48.9103 48.8328 48.9486 48.731 48.9486Z" fill="white"/>
</g>
<path d="M53.3546 18.4868H6.80673C5.88845 18.4868 5.14404 19.2312 5.14404 20.1495C5.14404 21.0678 5.88845 21.8122 6.80673 21.8122H53.3546C54.2729 21.8122 55.0173 21.0678 55.0173 20.1495C55.0173 19.2312 54.2729 18.4868 53.3546 18.4868Z" fill="white"/>
<path d="M52.8157 37.2579C51.1564 36.5046 49.2779 37.4184 48.6205 39.3027C48.5213 39.6418 48.4558 39.9898 48.4248 40.3417C48.3944 39.9846 48.3288 39.6313 48.2291 39.2871C47.5971 37.3851 45.7304 36.4224 44.0613 37.1347C42.3923 37.8469 41.547 39.9641 42.181 41.864C42.6506 43.2748 46.245 47.6128 47.7243 49.3602C47.7996 49.4567 47.8957 49.5352 48.0053 49.5897C48.115 49.6442 48.2355 49.6733 48.358 49.675C48.4804 49.6767 48.6017 49.6509 48.7128 49.5994C48.824 49.548 48.9221 49.4722 49.0001 49.3778C50.4989 47.6696 54.1423 43.4353 54.6295 42.0382C55.2909 40.1539 54.4749 38.0132 52.8157 37.2579Z" fill="#CEDC00"/>
</g>
</svg>
