<svg width="60" height="60" viewBox="0 0 60 60" fill="none" xmlns="http://www.w3.org/2000/svg">
<path fill-rule="evenodd" clip-rule="evenodd" d="M23.7895 37.0526C30.9837 37.0526 36.8158 31.2206 36.8158 24.0263C36.8158 16.8321 30.9837 11 23.7895 11C16.5953 11 10.7632 16.8321 10.7632 24.0263C10.7632 31.2206 16.5953 37.0526 23.7895 37.0526Z" fill="#CADA2A"/>
<mask id="mask0" mask-type="alpha" maskUnits="userSpaceOnUse" x="10" y="10" width="28" height="28">
<path fill-rule="evenodd" clip-rule="evenodd" d="M23.7898 37.7368C31.362 37.7368 37.5005 31.5983 37.5005 24.0261C37.5005 16.4539 31.362 10.3154 23.7898 10.3154C16.2176 10.3154 10.0791 16.4539 10.0791 24.0261C10.0791 31.5983 16.2176 37.7368 23.7898 37.7368Z" fill="white"/>
</mask>
<g mask="url(#mask0)">
<rect x="5.63965" y="5.87646" width="35.5429" height="35.5429" rx="2" fill="#1A1A1A"/>
<mask id="mask1" mask-type="alpha" maskUnits="userSpaceOnUse" x="5" y="5" width="37" height="37">
<rect x="5.63965" y="5.87646" width="35.5429" height="35.5429" rx="2" fill="white"/>
</mask>
<g mask="url(#mask1)">
<g opacity="0.0945871">
<path fill-rule="evenodd" clip-rule="evenodd" d="M33.2207 16.4817C33.2067 16.4817 33.195 16.4793 33.1856 16.4773L33.18 16.4761C33.1723 16.4753 33.1639 16.4744 33.1542 16.4713C33.132 16.4642 33.1113 16.4536 33.0926 16.4398C33.0738 16.4262 33.0573 16.4097 33.0438 16.3908C33.017 16.3535 33.0028 16.3094 33.0028 16.2632C33.0028 16.2399 33.0065 16.2168 33.0138 16.1946L33.189 15.6604C33.1921 15.6507 33.1938 15.6405 33.1938 15.63C33.1938 15.6229 33.1929 15.6156 33.1912 15.6085C33.1878 15.5939 33.181 15.5805 33.1716 15.5693C33.1667 15.5634 33.1611 15.5582 33.1547 15.5535L32.6999 15.2244C32.6621 15.197 32.6345 15.1592 32.6201 15.1149C32.6131 15.0932 32.6094 15.0706 32.6094 15.048C32.6093 15.0247 32.6129 15.0015 32.6201 14.9793C32.6271 14.9576 32.6375 14.9374 32.6508 14.9192C32.6897 14.8659 32.7529 14.8327 32.824 14.8284L33.389 14.8305C33.4192 14.8305 33.4471 14.8163 33.4651 14.7915C33.4711 14.7831 33.4758 14.774 33.4789 14.7642L33.6498 14.2286C33.6789 14.1377 33.7621 14.0767 33.8571 14.0767C33.9521 14.0767 34.0355 14.1377 34.0645 14.2286L34.2355 14.7642C34.2386 14.7741 34.2432 14.7831 34.2492 14.7915C34.2673 14.8163 34.2951 14.8305 34.3256 14.8305L34.8863 14.8283C34.9103 14.8285 34.9333 14.8321 34.9552 14.8392C35.0217 14.8609 35.0724 14.912 35.0942 14.9794C35.1014 15.0015 35.1051 15.0247 35.1049 15.048C35.1049 15.0707 35.1013 15.0932 35.0942 15.1149C35.0798 15.1591 35.0522 15.197 35.0145 15.2243L34.56 15.5531C34.5517 15.5591 34.5445 15.5663 34.5385 15.5748C34.5255 15.5928 34.5192 15.615 34.5207 15.6371C34.5213 15.6447 34.5228 15.6523 34.5252 15.6597L34.7006 16.1946C34.7079 16.217 34.7115 16.24 34.7115 16.2632C34.7115 16.3094 34.6973 16.3535 34.6705 16.3908C34.657 16.4096 34.6406 16.4262 34.6216 16.44C34.5843 16.4673 34.54 16.4817 34.4938 16.4817C34.4472 16.4817 34.4027 16.4671 34.3651 16.4395L33.9133 16.107C33.9051 16.1009 33.896 16.0963 33.8861 16.0931C33.8835 16.0923 33.8806 16.092 33.8779 16.0916C33.8684 16.0901 33.8641 16.0894 33.8598 16.0892L33.8569 16.0892L33.8524 16.0897C33.846 16.0899 33.84 16.0909 33.8336 16.0926L33.8259 16.0945C33.8157 16.0981 33.808 16.102 33.8016 16.1067L33.3493 16.4395C33.3303 16.4534 33.3095 16.464 33.2875 16.4711C33.2782 16.4741 33.2703 16.475 33.2655 16.4755C33.2495 16.4788 33.2363 16.4817 33.2208 16.4817H33.2207Z" fill="#373737"/>
<path fill-rule="evenodd" clip-rule="evenodd" d="M33.2207 22.7474C33.2067 22.7474 33.195 22.7449 33.1856 22.7429L33.18 22.7417C33.1723 22.741 33.1639 22.7401 33.1542 22.7369C33.132 22.7298 33.1113 22.7192 33.0926 22.7055C33.0738 22.6918 33.0573 22.6753 33.0438 22.6564C33.017 22.6191 33.0028 22.575 33.0028 22.5289C33.0028 22.5055 33.0065 22.4824 33.0138 22.4602L33.189 21.926C33.1921 21.9163 33.1938 21.9061 33.1938 21.8956C33.1938 21.8886 33.1929 21.8812 33.1912 21.8741C33.1878 21.8596 33.181 21.8461 33.1716 21.8349C33.1667 21.8291 33.1611 21.8238 33.1547 21.8191L32.6999 21.49C32.6621 21.4626 32.6345 21.4248 32.6201 21.3806C32.6131 21.3588 32.6094 21.3363 32.6094 21.3136C32.6093 21.2903 32.6129 21.2672 32.6201 21.2449C32.6271 21.2232 32.6375 21.2031 32.6508 21.1848C32.6897 21.1315 32.7529 21.0983 32.824 21.094L33.389 21.0961C33.4192 21.0961 33.4471 21.0819 33.4651 21.0571C33.4711 21.0488 33.4758 21.0396 33.4789 21.0299L33.6498 20.4942C33.6789 20.4034 33.7621 20.3423 33.8571 20.3423C33.9521 20.3423 34.0355 20.4034 34.0645 20.4942L34.2355 21.0298C34.2386 21.0397 34.2432 21.0488 34.2492 21.0571C34.2673 21.0819 34.2951 21.0961 34.3256 21.0961L34.8863 21.0939C34.9103 21.0941 34.9333 21.0977 34.9552 21.1049C35.0217 21.1266 35.0724 21.1776 35.0942 21.245C35.1014 21.2672 35.1051 21.2903 35.1049 21.3136C35.1049 21.3363 35.1013 21.3589 35.0942 21.3806C35.0798 21.4248 35.0522 21.4626 35.0145 21.4899L34.56 21.8187C34.5517 21.8247 34.5445 21.832 34.5385 21.8404C34.5255 21.8584 34.5192 21.8806 34.5207 21.9027C34.5213 21.9103 34.5228 21.9179 34.5252 21.9254L34.7006 22.4602C34.7079 22.4826 34.7115 22.5056 34.7115 22.5289C34.7115 22.575 34.6973 22.6192 34.6705 22.6565C34.657 22.6752 34.6406 22.6918 34.6216 22.7056C34.5843 22.7329 34.54 22.7474 34.4938 22.7474C34.4472 22.7474 34.4027 22.7327 34.3651 22.7051L33.9133 22.3726C33.9051 22.3666 33.896 22.3619 33.8861 22.3587C33.8835 22.3579 33.8806 22.3576 33.8779 22.3572C33.8684 22.3557 33.8641 22.355 33.8598 22.3548L33.8569 22.3548L33.8524 22.3553C33.846 22.3556 33.84 22.3565 33.8336 22.3582L33.8259 22.3602C33.8157 22.3638 33.808 22.3676 33.8016 22.3723L33.3493 22.7051C33.3303 22.719 33.3095 22.7296 33.2875 22.7368C33.2782 22.7397 33.2703 22.7406 33.2655 22.7411C33.2495 22.7444 33.2363 22.7473 33.2208 22.7474H33.2207Z" fill="#373737"/>
<path fill-rule="evenodd" clip-rule="evenodd" d="M33.2207 29.0135C33.2067 29.0135 33.195 29.011 33.1856 29.009L33.18 29.0078C33.1723 29.0071 33.1639 29.0062 33.1542 29.003C33.132 28.9959 33.1113 28.9853 33.0926 28.9716C33.0738 28.958 33.0573 28.9414 33.0438 28.9225C33.017 28.8852 33.0028 28.8411 33.0028 28.795C33.0028 28.7716 33.0065 28.7485 33.0138 28.7263L33.189 28.1921C33.1921 28.1824 33.1938 28.1722 33.1938 28.1617C33.1938 28.1547 33.1929 28.1473 33.1912 28.1403C33.1878 28.1257 33.181 28.1122 33.1716 28.1011C33.1667 28.0952 33.1611 28.0899 33.1547 28.0852L32.6999 27.7561C32.6621 27.7287 32.6345 27.6909 32.6201 27.6467C32.6131 27.6249 32.6094 27.6024 32.6094 27.5797C32.6093 27.5564 32.6129 27.5333 32.6201 27.5111C32.6271 27.4894 32.6375 27.4692 32.6508 27.4509C32.6897 27.3976 32.7529 27.3645 32.824 27.3601L33.389 27.3622C33.4192 27.3622 33.4471 27.348 33.4651 27.3232C33.4711 27.3149 33.4758 27.3057 33.4789 27.296L33.6498 26.7603C33.6789 26.6695 33.7621 26.6084 33.8571 26.6084C33.9521 26.6084 34.0355 26.6695 34.0645 26.7603L34.2355 27.2959C34.2386 27.3058 34.2432 27.3149 34.2492 27.3232C34.2673 27.348 34.2951 27.3622 34.3256 27.3622L34.8863 27.36C34.9103 27.3602 34.9333 27.3638 34.9552 27.371C35.0217 27.3927 35.0724 27.4437 35.0942 27.5111C35.1014 27.5333 35.1051 27.5564 35.1049 27.5797C35.1049 27.6024 35.1013 27.625 35.0942 27.6467C35.0798 27.6909 35.0522 27.7287 35.0145 27.756L34.56 28.0849C34.5517 28.0909 34.5445 28.0981 34.5385 28.1065C34.5255 28.1246 34.5192 28.1467 34.5207 28.1688C34.5213 28.1764 34.5228 28.184 34.5252 28.1915L34.7006 28.7263C34.7079 28.7487 34.7115 28.7718 34.7115 28.795C34.7115 28.8411 34.6973 28.8853 34.6705 28.9226C34.657 28.9414 34.6406 28.9579 34.6216 28.9717C34.5843 28.999 34.54 29.0135 34.4938 29.0135C34.4472 29.0135 34.4027 28.9988 34.3651 28.9712L33.9133 28.6387C33.9051 28.6327 33.896 28.628 33.8861 28.6248C33.8835 28.624 33.8806 28.6238 33.8779 28.6233C33.8684 28.6218 33.8641 28.6211 33.8598 28.621L33.8569 28.6209L33.8524 28.6214C33.846 28.6217 33.84 28.6226 33.8336 28.6243L33.8259 28.6263C33.8157 28.6299 33.808 28.6337 33.8016 28.6384L33.3493 28.9712C33.3303 28.9851 33.3095 28.9957 33.2875 29.0029C33.2782 29.0059 33.2703 29.0067 33.2655 29.0072C33.2495 29.0105 33.2363 29.0134 33.2208 29.0135H33.2207Z" fill="#373737"/>
<path fill-rule="evenodd" clip-rule="evenodd" d="M33.2207 35.2791C33.2067 35.2791 33.195 35.2766 33.1856 35.2746L33.18 35.2734C33.1723 35.2727 33.1639 35.2718 33.1542 35.2687C33.132 35.2616 33.1113 35.251 33.0926 35.2372C33.0738 35.2236 33.0573 35.207 33.0438 35.1881C33.017 35.1508 33.0028 35.1068 33.0028 35.0606C33.0028 35.0373 33.0065 35.0142 33.0138 34.992L33.189 34.4578C33.1921 34.4481 33.1938 34.4379 33.1938 34.4274C33.1938 34.4203 33.1929 34.413 33.1912 34.4059C33.1878 34.3913 33.181 34.3778 33.1716 34.3667C33.1667 34.3608 33.1611 34.3555 33.1547 34.3509L32.6999 34.0217C32.6621 33.9943 32.6345 33.9565 32.6201 33.9123C32.6131 33.8905 32.6094 33.868 32.6094 33.8453C32.6093 33.8221 32.6129 33.7989 32.6201 33.7767C32.6271 33.755 32.6375 33.7348 32.6508 33.7166C32.6897 33.6632 32.7529 33.6301 32.824 33.6258L33.389 33.6278C33.4192 33.6278 33.4471 33.6137 33.4651 33.5889C33.4711 33.5805 33.4758 33.5714 33.4789 33.5616L33.6498 33.026C33.6789 32.9351 33.7621 32.874 33.8571 32.874C33.9521 32.874 34.0355 32.9351 34.0645 33.026L34.2355 33.5615C34.2386 33.5714 34.2432 33.5805 34.2492 33.5889C34.2673 33.6137 34.2951 33.6278 34.3256 33.6278L34.8863 33.6257C34.9103 33.6258 34.9333 33.6295 34.9552 33.6366C35.0217 33.6583 35.0724 33.7093 35.0942 33.7767C35.1014 33.7989 35.1051 33.8221 35.1049 33.8453C35.1049 33.868 35.1013 33.8906 35.0942 33.9123C35.0798 33.9565 35.0522 33.9943 35.0145 34.0217L34.56 34.3505C34.5517 34.3565 34.5445 34.3637 34.5385 34.3721C34.5255 34.3902 34.5192 34.4123 34.5207 34.4344C34.5213 34.4421 34.5228 34.4496 34.5252 34.4571L34.7006 34.992C34.7079 35.0143 34.7115 35.0374 34.7115 35.0606C34.7115 35.1068 34.6973 35.1509 34.6705 35.1882C34.657 35.207 34.6406 35.2235 34.6216 35.2373C34.5843 35.2646 34.54 35.2791 34.4938 35.2791C34.4472 35.2791 34.4027 35.2645 34.3651 35.2368L33.9133 34.9044C33.9051 34.8983 33.896 34.8936 33.8861 34.8904C33.8835 34.8897 33.8806 34.8894 33.8779 34.8889C33.8684 34.8874 33.8641 34.8867 33.8598 34.8866L33.8569 34.8865L33.8524 34.887C33.846 34.8873 33.84 34.8883 33.8336 34.8899L33.8259 34.8919C33.8157 34.8955 33.808 34.8994 33.8016 34.904L33.3493 35.2368C33.3303 35.2507 33.3095 35.2613 33.2875 35.2685C33.2782 35.2715 33.2703 35.2723 33.2655 35.2728C33.2495 35.2761 33.2363 35.279 33.2208 35.2791H33.2207Z" fill="#373737"/>
<path fill-rule="evenodd" clip-rule="evenodd" d="M26.9814 13.3489C26.9675 13.3489 26.9558 13.3465 26.9463 13.3444L26.9407 13.3433C26.9331 13.3425 26.9247 13.3416 26.915 13.3385C26.8927 13.3314 26.8721 13.3208 26.8533 13.307C26.8346 13.2934 26.8181 13.2769 26.8046 13.258C26.7778 13.2207 26.7636 13.1766 26.7636 13.1304C26.7636 13.1071 26.7672 13.084 26.7745 13.0618L26.9497 12.5276C26.9529 12.5179 26.9546 12.5077 26.9546 12.4972C26.9545 12.4901 26.9536 12.4828 26.9519 12.4757C26.9485 12.4611 26.9418 12.4477 26.9324 12.4365C26.9275 12.4306 26.9218 12.4253 26.9155 12.4207L26.4606 12.0915C26.4228 12.0642 26.3952 12.0264 26.3808 11.9821C26.3738 11.9604 26.3702 11.9378 26.3701 11.9152C26.37 11.8919 26.3736 11.8687 26.3808 11.8465C26.3879 11.8248 26.3982 11.8046 26.4115 11.7864C26.4505 11.7331 26.5137 11.6999 26.5848 11.6956L27.1498 11.6977C27.18 11.6977 27.2078 11.6835 27.2258 11.6587C27.2319 11.6503 27.2365 11.6412 27.2396 11.6314L27.4106 11.0958C27.4396 11.0049 27.5229 10.9438 27.6178 10.9438C27.7129 10.9438 27.7962 11.0049 27.8252 11.0958L27.9962 11.6314C27.9994 11.6412 28.0039 11.6503 28.01 11.6587C28.028 11.6835 28.0558 11.6977 28.0863 11.6977L28.6471 11.6955C28.6711 11.6956 28.694 11.6993 28.7159 11.7064C28.7825 11.7281 28.8332 11.7792 28.855 11.8466C28.8622 11.8687 28.8658 11.8919 28.8657 11.9152C28.8656 11.9379 28.862 11.9604 28.8549 11.9821C28.8405 12.0263 28.813 12.0642 28.7752 12.0915L28.3208 12.4203C28.3125 12.4263 28.3053 12.4335 28.2992 12.4419C28.2862 12.46 28.2799 12.4822 28.2815 12.5043C28.282 12.5119 28.2835 12.5195 28.2859 12.5269L28.4613 13.0618C28.4686 13.0842 28.4722 13.1072 28.4722 13.1304C28.4722 13.1766 28.458 13.2207 28.4312 13.258C28.4178 13.2768 28.4013 13.2933 28.3824 13.3071C28.345 13.3345 28.3008 13.3489 28.2545 13.3489C28.208 13.3489 28.1635 13.3343 28.1258 13.3066L27.674 12.9742C27.6658 12.9681 27.6567 12.9635 27.6469 12.9603C27.6442 12.9595 27.6414 12.9592 27.6386 12.9588C27.6291 12.9572 27.6249 12.9566 27.6205 12.9564L27.6177 12.9563L27.6132 12.9568C27.6067 12.9571 27.6007 12.9581 27.5943 12.9598L27.5866 12.9617C27.5764 12.9653 27.5688 12.9692 27.5623 12.9738L27.11 13.3066C27.091 13.3205 27.0703 13.3311 27.0483 13.3383C27.039 13.3413 27.0311 13.3421 27.0263 13.3426C27.0103 13.346 26.997 13.3489 26.9816 13.3489H26.9814Z" fill="#373737"/>
<path fill-rule="evenodd" clip-rule="evenodd" d="M26.9814 19.6146C26.9675 19.6146 26.9558 19.6121 26.9463 19.6101L26.9407 19.6089C26.9331 19.6082 26.9247 19.6073 26.915 19.6041C26.8927 19.597 26.8721 19.5864 26.8533 19.5727C26.8346 19.559 26.8181 19.5425 26.8046 19.5236C26.7778 19.4863 26.7636 19.4422 26.7636 19.3961C26.7636 19.3727 26.7672 19.3496 26.7745 19.3274L26.9497 18.7932C26.9529 18.7835 26.9546 18.7733 26.9546 18.7628C26.9545 18.7557 26.9536 18.7484 26.9519 18.7413C26.9485 18.7268 26.9418 18.7133 26.9324 18.7021C26.9275 18.6962 26.9218 18.691 26.9155 18.6863L26.4606 18.3572C26.4228 18.3298 26.3952 18.292 26.3808 18.2477C26.3738 18.226 26.3702 18.2034 26.3701 18.1808C26.37 18.1575 26.3736 18.1343 26.3808 18.1121C26.3879 18.0904 26.3982 18.0702 26.4115 18.052C26.4505 17.9987 26.5137 17.9655 26.5848 17.9612L27.1498 17.9633C27.18 17.9633 27.2078 17.9491 27.2258 17.9243C27.2319 17.916 27.2365 17.9068 27.2396 17.8971L27.4106 17.3614C27.4396 17.2705 27.5229 17.2095 27.6178 17.2095C27.7129 17.2095 27.7962 17.2705 27.8252 17.3614L27.9962 17.897C27.9994 17.9069 28.0039 17.916 28.01 17.9243C28.028 17.9491 28.0558 17.9633 28.0863 17.9633L28.6471 17.9611C28.6711 17.9613 28.694 17.9649 28.7159 17.972C28.7825 17.9937 28.8332 18.0448 28.855 18.1122C28.8622 18.1343 28.8658 18.1575 28.8657 18.1808C28.8656 18.2035 28.862 18.226 28.8549 18.2477C28.8405 18.2919 28.813 18.3298 28.7752 18.3571L28.3208 18.6859C28.3125 18.6919 28.3053 18.6992 28.2992 18.7076C28.2862 18.7256 28.2799 18.7478 28.2815 18.7699C28.282 18.7775 28.2835 18.7851 28.2859 18.7925L28.4613 19.3274C28.4686 19.3498 28.4722 19.3728 28.4722 19.3961C28.4722 19.4422 28.458 19.4863 28.4312 19.5236C28.4178 19.5424 28.4013 19.559 28.3824 19.5728C28.345 19.6001 28.3008 19.6146 28.2545 19.6146C28.208 19.6146 28.1635 19.5999 28.1258 19.5723L27.674 19.2398C27.6658 19.2337 27.6567 19.2291 27.6469 19.2259C27.6442 19.2251 27.6414 19.2248 27.6386 19.2244C27.6291 19.2229 27.6249 19.2222 27.6205 19.222L27.6177 19.222L27.6132 19.2225C27.6067 19.2228 27.6007 19.2237 27.5943 19.2254L27.5866 19.2274C27.5764 19.2309 27.5688 19.2348 27.5623 19.2395L27.11 19.5723C27.091 19.5862 27.0703 19.5968 27.0483 19.604C27.039 19.6069 27.0311 19.6078 27.0263 19.6083C27.0103 19.6116 26.997 19.6145 26.9816 19.6146H26.9814Z" fill="#373737"/>
<path fill-rule="evenodd" clip-rule="evenodd" d="M26.9814 25.8807C26.9675 25.8807 26.9558 25.8782 26.9463 25.8762L26.9407 25.875C26.9331 25.8743 26.9247 25.8734 26.915 25.8702C26.8927 25.8631 26.8721 25.8525 26.8533 25.8388C26.8346 25.8251 26.8181 25.8086 26.8046 25.7897C26.7778 25.7524 26.7636 25.7083 26.7636 25.6622C26.7636 25.6388 26.7672 25.6157 26.7745 25.5935L26.9497 25.0593C26.9529 25.0496 26.9546 25.0394 26.9546 25.0289C26.9545 25.0219 26.9536 25.0145 26.9519 25.0074C26.9485 24.9929 26.9418 24.9794 26.9324 24.9682C26.9275 24.9624 26.9218 24.9571 26.9155 24.9524L26.4606 24.6233C26.4228 24.5959 26.3952 24.5581 26.3808 24.5139C26.3738 24.4921 26.3702 24.4696 26.3701 24.4469C26.37 24.4236 26.3736 24.4005 26.3808 24.3782C26.3879 24.3565 26.3982 24.3364 26.4115 24.3181C26.4505 24.2648 26.5137 24.2316 26.5848 24.2273L27.1498 24.2294C27.18 24.2294 27.2078 24.2152 27.2258 24.1904C27.2319 24.1821 27.2365 24.1729 27.2396 24.1632L27.4106 23.6275C27.4396 23.5367 27.5229 23.4756 27.6178 23.4756C27.7129 23.4756 27.7962 23.5367 27.8252 23.6275L27.9962 24.1631C27.9994 24.173 28.0039 24.1821 28.01 24.1904C28.028 24.2152 28.0558 24.2294 28.0863 24.2294L28.6471 24.2272C28.6711 24.2274 28.694 24.231 28.7159 24.2382C28.7825 24.2599 28.8332 24.3109 28.855 24.3783C28.8622 24.4005 28.8658 24.4236 28.8657 24.4469C28.8656 24.4696 28.862 24.4922 28.8549 24.5139C28.8405 24.5581 28.813 24.5959 28.7752 24.6232L28.3208 24.952C28.3125 24.958 28.3053 24.9653 28.2992 24.9737C28.2862 24.9917 28.2799 25.0139 28.2815 25.036C28.282 25.0436 28.2835 25.0512 28.2859 25.0587L28.4613 25.5935C28.4686 25.6159 28.4722 25.6389 28.4722 25.6622C28.4722 25.7083 28.458 25.7525 28.4312 25.7898C28.4178 25.8085 28.4013 25.8251 28.3824 25.8389C28.345 25.8662 28.3008 25.8807 28.2545 25.8807C28.208 25.8807 28.1635 25.866 28.1258 25.8384L27.674 25.5059C27.6658 25.4999 27.6567 25.4952 27.6469 25.492C27.6442 25.4912 27.6414 25.4909 27.6386 25.4905C27.6291 25.489 27.6249 25.4883 27.6205 25.4881L27.6177 25.4881L27.6132 25.4886C27.6067 25.4889 27.6007 25.4898 27.5943 25.4915L27.5866 25.4935C27.5764 25.4971 27.5688 25.5009 27.5623 25.5056L27.11 25.8384C27.091 25.8523 27.0703 25.8629 27.0483 25.8701C27.039 25.873 27.0311 25.8739 27.0263 25.8744C27.0103 25.8777 26.997 25.8806 26.9816 25.8807H26.9814Z" fill="#373737"/>
<path fill-rule="evenodd" clip-rule="evenodd" d="M26.9814 32.1468C26.9675 32.1468 26.9558 32.1443 26.9463 32.1423L26.9407 32.1411C26.9331 32.1404 26.9247 32.1395 26.915 32.1363C26.8927 32.1292 26.8721 32.1186 26.8533 32.1049C26.8346 32.0913 26.8181 32.0747 26.8046 32.0558C26.7778 32.0185 26.7636 31.9744 26.7636 31.9283C26.7636 31.9049 26.7672 31.8818 26.7745 31.8596L26.9497 31.3254C26.9529 31.3157 26.9546 31.3055 26.9546 31.295C26.9545 31.288 26.9536 31.2806 26.9519 31.2736C26.9485 31.259 26.9418 31.2455 26.9324 31.2344C26.9275 31.2285 26.9218 31.2232 26.9155 31.2185L26.4606 30.8894C26.4228 30.862 26.3952 30.8242 26.3808 30.78C26.3738 30.7582 26.3702 30.7357 26.3701 30.713C26.37 30.6897 26.3736 30.6666 26.3808 30.6444C26.3879 30.6227 26.3982 30.6025 26.4115 30.5842C26.4505 30.5309 26.5137 30.4978 26.5848 30.4934L27.1498 30.4955C27.18 30.4955 27.2078 30.4813 27.2258 30.4565C27.2319 30.4482 27.2365 30.439 27.2396 30.4293L27.4106 29.8936C27.4396 29.8028 27.5229 29.7417 27.6178 29.7417C27.7129 29.7417 27.7962 29.8028 27.8252 29.8936L27.9962 30.4292C27.9994 30.4391 28.0039 30.4482 28.01 30.4565C28.028 30.4813 28.0558 30.4955 28.0863 30.4955L28.6471 30.4933C28.6711 30.4935 28.694 30.4971 28.7159 30.5043C28.7825 30.526 28.8332 30.577 28.855 30.6444C28.8622 30.6666 28.8658 30.6897 28.8657 30.713C28.8656 30.7357 28.862 30.7583 28.8549 30.78C28.8405 30.8242 28.813 30.862 28.7752 30.8893L28.3208 31.2182C28.3125 31.2242 28.3053 31.2314 28.2992 31.2398C28.2862 31.2579 28.2799 31.28 28.2815 31.3021C28.282 31.3097 28.2835 31.3173 28.2859 31.3248L28.4613 31.8596C28.4686 31.882 28.4722 31.9051 28.4722 31.9283C28.4722 31.9744 28.458 32.0186 28.4312 32.0559C28.4178 32.0747 28.4013 32.0912 28.3824 32.105C28.345 32.1323 28.3008 32.1468 28.2545 32.1468C28.208 32.1468 28.1635 32.1321 28.1258 32.1045L27.674 31.772C27.6658 31.766 27.6567 31.7613 27.6469 31.7581C27.6442 31.7573 27.6414 31.7571 27.6386 31.7566C27.6291 31.7551 27.6249 31.7544 27.6205 31.7543L27.6177 31.7542L27.6132 31.7547C27.6067 31.755 27.6007 31.7559 27.5943 31.7576L27.5866 31.7596C27.5764 31.7632 27.5688 31.767 27.5623 31.7717L27.11 32.1045C27.091 32.1184 27.0703 32.129 27.0483 32.1362C27.039 32.1392 27.0311 32.14 27.0263 32.1405C27.0103 32.1438 26.997 32.1467 26.9816 32.1468H26.9814Z" fill="#373737"/>
<path fill-rule="evenodd" clip-rule="evenodd" d="M26.9814 38.4124C26.9675 38.4124 26.9558 38.4099 26.9463 38.4079L26.9407 38.4067C26.9331 38.406 26.9247 38.4051 26.915 38.402C26.8927 38.3948 26.8721 38.3842 26.8533 38.3705C26.8346 38.3569 26.8181 38.3403 26.8046 38.3214C26.7778 38.2841 26.7636 38.2401 26.7636 38.1939C26.7636 38.1706 26.7672 38.1475 26.7745 38.1253L26.9497 37.5911C26.9529 37.5814 26.9546 37.5712 26.9546 37.5607C26.9545 37.5536 26.9536 37.5463 26.9519 37.5392C26.9485 37.5246 26.9418 37.5111 26.9324 37.5C26.9275 37.4941 26.9218 37.4888 26.9155 37.4842L26.4606 37.155C26.4228 37.1276 26.3952 37.0898 26.3808 37.0456C26.3738 37.0238 26.3702 37.0013 26.3701 36.9786C26.37 36.9554 26.3736 36.9322 26.3808 36.91C26.3879 36.8883 26.3982 36.8681 26.4115 36.8499C26.4505 36.7965 26.5137 36.7634 26.5848 36.7591L27.1498 36.7611C27.18 36.7611 27.2078 36.747 27.2258 36.7222C27.2319 36.7138 27.2365 36.7047 27.2396 36.6949L27.4106 36.1593C27.4396 36.0684 27.5229 36.0073 27.6178 36.0073C27.7129 36.0073 27.7962 36.0684 27.8252 36.1593L27.9962 36.6949C27.9994 36.7047 28.0039 36.7138 28.01 36.7222C28.028 36.747 28.0558 36.7611 28.0863 36.7611L28.6471 36.759C28.6711 36.7591 28.694 36.7628 28.7159 36.7699C28.7825 36.7916 28.8332 36.8426 28.855 36.91C28.8622 36.9322 28.8658 36.9554 28.8657 36.9786C28.8656 37.0013 28.862 37.0239 28.8549 37.0456C28.8405 37.0898 28.813 37.1276 28.7752 37.155L28.3208 37.4838C28.3125 37.4898 28.3053 37.497 28.2992 37.5054C28.2862 37.5235 28.2799 37.5456 28.2815 37.5677C28.282 37.5754 28.2835 37.5829 28.2859 37.5904L28.4613 38.1253C28.4686 38.1476 28.4722 38.1707 28.4722 38.1939C28.4722 38.2401 28.458 38.2842 28.4312 38.3215C28.4178 38.3403 28.4013 38.3568 28.3824 38.3706C28.345 38.3979 28.3008 38.4124 28.2545 38.4124C28.208 38.4124 28.1635 38.3978 28.1258 38.3701L27.674 38.0377C27.6658 38.0316 27.6567 38.0269 27.6469 38.0237C27.6442 38.023 27.6414 38.0227 27.6386 38.0222C27.6291 38.0207 27.6249 38.02 27.6205 38.0199L27.6177 38.0198L27.6132 38.0203C27.6067 38.0206 27.6007 38.0216 27.5943 38.0232L27.5866 38.0252C27.5764 38.0288 27.5688 38.0327 27.5623 38.0373L27.11 38.3701C27.091 38.384 27.0703 38.3946 27.0483 38.4018C27.039 38.4048 27.0311 38.4056 27.0263 38.4061C27.0103 38.4094 26.997 38.4123 26.9816 38.4124H26.9814Z" fill="#373737"/>
<path fill-rule="evenodd" clip-rule="evenodd" d="M20.7417 16.4817C20.7277 16.4817 20.716 16.4793 20.7066 16.4773L20.701 16.4761C20.6933 16.4753 20.6849 16.4744 20.6752 16.4713C20.653 16.4642 20.6323 16.4536 20.6136 16.4398C20.5948 16.4262 20.5783 16.4097 20.5648 16.3908C20.538 16.3535 20.5238 16.3094 20.5238 16.2632C20.5238 16.2399 20.5275 16.2168 20.5348 16.1946L20.71 15.6604C20.7131 15.6507 20.7148 15.6405 20.7148 15.63C20.7148 15.6229 20.7139 15.6156 20.7122 15.6085C20.7088 15.5939 20.702 15.5805 20.6926 15.5693C20.6877 15.5634 20.6821 15.5582 20.6757 15.5535L20.2209 15.2244C20.1831 15.197 20.1555 15.1592 20.1411 15.1149C20.1341 15.0932 20.1304 15.0706 20.1304 15.048C20.1303 15.0247 20.1339 15.0015 20.1411 14.9793C20.1481 14.9576 20.1585 14.9374 20.1718 14.9192C20.2107 14.8659 20.2739 14.8327 20.345 14.8284L20.91 14.8305C20.9402 14.8305 20.9681 14.8163 20.9861 14.7915C20.9921 14.7831 20.9968 14.774 20.9999 14.7642L21.1708 14.2286C21.1999 14.1377 21.2831 14.0767 21.3781 14.0767C21.4731 14.0767 21.5565 14.1377 21.5855 14.2286L21.7565 14.7642C21.7596 14.7741 21.7642 14.7831 21.7702 14.7915C21.7883 14.8163 21.8161 14.8305 21.8466 14.8305L22.4073 14.8283C22.4313 14.8285 22.4543 14.8321 22.4762 14.8392C22.5427 14.8609 22.5934 14.912 22.6152 14.9794C22.6224 15.0015 22.626 15.0247 22.6259 15.048C22.6259 15.0707 22.6223 15.0932 22.6152 15.1149C22.6008 15.1591 22.5732 15.197 22.5355 15.2243L22.081 15.5531C22.0727 15.5591 22.0655 15.5663 22.0595 15.5748C22.0465 15.5928 22.0402 15.615 22.0417 15.6371C22.0423 15.6447 22.0438 15.6523 22.0462 15.6597L22.2216 16.1946C22.2288 16.217 22.2325 16.24 22.2325 16.2632C22.2325 16.3094 22.2183 16.3535 22.1915 16.3908C22.178 16.4096 22.1616 16.4262 22.1426 16.44C22.1053 16.4673 22.061 16.4817 22.0148 16.4817C21.9682 16.4817 21.9237 16.4671 21.8861 16.4395L21.4343 16.107C21.4261 16.1009 21.417 16.0963 21.4071 16.0931C21.4045 16.0923 21.4016 16.092 21.3989 16.0916C21.3894 16.0901 21.3851 16.0894 21.3808 16.0892L21.3779 16.0892L21.3734 16.0897C21.367 16.0899 21.361 16.0909 21.3546 16.0926L21.3469 16.0945C21.3367 16.0981 21.329 16.102 21.3226 16.1067L20.8703 16.4395C20.8513 16.4534 20.8305 16.464 20.8085 16.4711C20.7992 16.4741 20.7913 16.475 20.7865 16.4755C20.7705 16.4788 20.7573 16.4817 20.7418 16.4817H20.7417Z" fill="#373737"/>
<path fill-rule="evenodd" clip-rule="evenodd" d="M20.7417 22.7474C20.7277 22.7474 20.716 22.7449 20.7066 22.7429L20.701 22.7417C20.6933 22.741 20.6849 22.7401 20.6752 22.7369C20.653 22.7298 20.6323 22.7192 20.6136 22.7055C20.5948 22.6918 20.5783 22.6753 20.5648 22.6564C20.538 22.6191 20.5238 22.575 20.5238 22.5289C20.5238 22.5055 20.5275 22.4824 20.5348 22.4602L20.71 21.926C20.7131 21.9163 20.7148 21.9061 20.7148 21.8956C20.7148 21.8886 20.7139 21.8812 20.7122 21.8741C20.7088 21.8596 20.702 21.8461 20.6926 21.8349C20.6877 21.8291 20.6821 21.8238 20.6757 21.8191L20.2209 21.49C20.1831 21.4626 20.1555 21.4248 20.1411 21.3806C20.1341 21.3588 20.1304 21.3363 20.1304 21.3136C20.1303 21.2903 20.1339 21.2672 20.1411 21.2449C20.1481 21.2232 20.1585 21.2031 20.1718 21.1848C20.2107 21.1315 20.2739 21.0983 20.345 21.094L20.91 21.0961C20.9402 21.0961 20.9681 21.0819 20.9861 21.0571C20.9921 21.0488 20.9968 21.0396 20.9999 21.0299L21.1708 20.4942C21.1999 20.4034 21.2831 20.3423 21.3781 20.3423C21.4731 20.3423 21.5565 20.4034 21.5855 20.4942L21.7565 21.0298C21.7596 21.0397 21.7642 21.0488 21.7702 21.0571C21.7883 21.0819 21.8161 21.0961 21.8466 21.0961L22.4073 21.0939C22.4313 21.0941 22.4543 21.0977 22.4762 21.1049C22.5427 21.1266 22.5934 21.1776 22.6152 21.245C22.6224 21.2672 22.626 21.2903 22.6259 21.3136C22.6259 21.3363 22.6223 21.3589 22.6152 21.3806C22.6008 21.4248 22.5732 21.4626 22.5355 21.4899L22.081 21.8187C22.0727 21.8247 22.0655 21.832 22.0595 21.8404C22.0465 21.8584 22.0402 21.8806 22.0417 21.9027C22.0423 21.9103 22.0438 21.9179 22.0462 21.9254L22.2216 22.4602C22.2288 22.4826 22.2325 22.5056 22.2325 22.5289C22.2325 22.575 22.2183 22.6192 22.1915 22.6565C22.178 22.6752 22.1616 22.6918 22.1426 22.7056C22.1053 22.7329 22.061 22.7474 22.0148 22.7474C21.9682 22.7474 21.9237 22.7327 21.8861 22.7051L21.4343 22.3726C21.4261 22.3666 21.417 22.3619 21.4071 22.3587C21.4045 22.3579 21.4016 22.3576 21.3989 22.3572C21.3894 22.3557 21.3851 22.355 21.3808 22.3548L21.3779 22.3548L21.3734 22.3553C21.367 22.3556 21.361 22.3565 21.3546 22.3582L21.3469 22.3602C21.3367 22.3638 21.329 22.3676 21.3226 22.3723L20.8703 22.7051C20.8513 22.719 20.8305 22.7296 20.8085 22.7368C20.7992 22.7397 20.7913 22.7406 20.7865 22.7411C20.7705 22.7444 20.7573 22.7473 20.7418 22.7474H20.7417Z" fill="#373737"/>
<path fill-rule="evenodd" clip-rule="evenodd" d="M20.7417 29.0135C20.7277 29.0135 20.716 29.011 20.7066 29.009L20.701 29.0078C20.6933 29.0071 20.6849 29.0062 20.6752 29.003C20.653 28.9959 20.6323 28.9853 20.6136 28.9716C20.5948 28.958 20.5783 28.9414 20.5648 28.9225C20.538 28.8852 20.5238 28.8411 20.5238 28.795C20.5238 28.7716 20.5275 28.7485 20.5348 28.7263L20.71 28.1921C20.7131 28.1824 20.7148 28.1722 20.7148 28.1617C20.7148 28.1547 20.7139 28.1473 20.7122 28.1403C20.7088 28.1257 20.702 28.1122 20.6926 28.1011C20.6877 28.0952 20.6821 28.0899 20.6757 28.0852L20.2209 27.7561C20.1831 27.7287 20.1555 27.6909 20.1411 27.6467C20.1341 27.6249 20.1304 27.6024 20.1304 27.5797C20.1303 27.5564 20.1339 27.5333 20.1411 27.5111C20.1481 27.4894 20.1585 27.4692 20.1718 27.4509C20.2107 27.3976 20.2739 27.3645 20.345 27.3601L20.91 27.3622C20.9402 27.3622 20.9681 27.348 20.9861 27.3232C20.9921 27.3149 20.9968 27.3057 20.9999 27.296L21.1708 26.7603C21.1999 26.6695 21.2831 26.6084 21.3781 26.6084C21.4731 26.6084 21.5565 26.6695 21.5855 26.7603L21.7565 27.2959C21.7596 27.3058 21.7642 27.3149 21.7702 27.3232C21.7883 27.348 21.8161 27.3622 21.8466 27.3622L22.4073 27.36C22.4313 27.3602 22.4543 27.3638 22.4762 27.371C22.5427 27.3927 22.5934 27.4437 22.6152 27.5111C22.6224 27.5333 22.626 27.5564 22.6259 27.5797C22.6259 27.6024 22.6223 27.625 22.6152 27.6467C22.6008 27.6909 22.5732 27.7287 22.5355 27.756L22.081 28.0849C22.0727 28.0909 22.0655 28.0981 22.0595 28.1065C22.0465 28.1246 22.0402 28.1467 22.0417 28.1688C22.0423 28.1764 22.0438 28.184 22.0462 28.1915L22.2216 28.7263C22.2288 28.7487 22.2325 28.7718 22.2325 28.795C22.2325 28.8411 22.2183 28.8853 22.1915 28.9226C22.178 28.9414 22.1616 28.9579 22.1426 28.9717C22.1053 28.999 22.061 29.0135 22.0148 29.0135C21.9682 29.0135 21.9237 28.9988 21.8861 28.9712L21.4343 28.6387C21.4261 28.6327 21.417 28.628 21.4071 28.6248C21.4045 28.624 21.4016 28.6238 21.3989 28.6233C21.3894 28.6218 21.3851 28.6211 21.3808 28.621L21.3779 28.6209L21.3734 28.6214C21.367 28.6217 21.361 28.6226 21.3546 28.6243L21.3469 28.6263C21.3367 28.6299 21.329 28.6337 21.3226 28.6384L20.8703 28.9712C20.8513 28.9851 20.8305 28.9957 20.8085 29.0029C20.7992 29.0059 20.7913 29.0067 20.7865 29.0072C20.7705 29.0105 20.7573 29.0134 20.7418 29.0135H20.7417Z" fill="#373737"/>
<path fill-rule="evenodd" clip-rule="evenodd" d="M20.7417 35.2791C20.7277 35.2791 20.716 35.2766 20.7066 35.2746L20.701 35.2734C20.6933 35.2727 20.6849 35.2718 20.6752 35.2687C20.653 35.2616 20.6323 35.251 20.6136 35.2372C20.5948 35.2236 20.5783 35.207 20.5648 35.1881C20.538 35.1508 20.5238 35.1068 20.5238 35.0606C20.5238 35.0373 20.5275 35.0142 20.5348 34.992L20.71 34.4578C20.7131 34.4481 20.7148 34.4379 20.7148 34.4274C20.7148 34.4203 20.7139 34.413 20.7122 34.4059C20.7088 34.3913 20.702 34.3778 20.6926 34.3667C20.6877 34.3608 20.6821 34.3555 20.6757 34.3509L20.2209 34.0217C20.1831 33.9943 20.1555 33.9565 20.1411 33.9123C20.1341 33.8905 20.1304 33.868 20.1304 33.8453C20.1303 33.8221 20.1339 33.7989 20.1411 33.7767C20.1481 33.755 20.1585 33.7348 20.1718 33.7166C20.2107 33.6632 20.2739 33.6301 20.345 33.6258L20.91 33.6278C20.9402 33.6278 20.9681 33.6137 20.9861 33.5889C20.9921 33.5805 20.9968 33.5714 20.9999 33.5616L21.1708 33.026C21.1999 32.9351 21.2831 32.874 21.3781 32.874C21.4731 32.874 21.5565 32.9351 21.5855 33.026L21.7565 33.5615C21.7596 33.5714 21.7642 33.5805 21.7702 33.5889C21.7883 33.6137 21.8161 33.6278 21.8466 33.6278L22.4073 33.6257C22.4313 33.6258 22.4543 33.6295 22.4762 33.6366C22.5427 33.6583 22.5934 33.7093 22.6152 33.7767C22.6224 33.7989 22.626 33.8221 22.6259 33.8453C22.6259 33.868 22.6223 33.8906 22.6152 33.9123C22.6008 33.9565 22.5732 33.9943 22.5355 34.0217L22.081 34.3505C22.0727 34.3565 22.0655 34.3637 22.0595 34.3721C22.0465 34.3902 22.0402 34.4123 22.0417 34.4344C22.0423 34.4421 22.0438 34.4496 22.0462 34.4571L22.2216 34.992C22.2288 35.0143 22.2325 35.0374 22.2325 35.0606C22.2325 35.1068 22.2183 35.1509 22.1915 35.1882C22.178 35.207 22.1616 35.2235 22.1426 35.2373C22.1053 35.2646 22.061 35.2791 22.0148 35.2791C21.9682 35.2791 21.9237 35.2645 21.8861 35.2368L21.4343 34.9044C21.4261 34.8983 21.417 34.8936 21.4071 34.8904C21.4045 34.8897 21.4016 34.8894 21.3989 34.8889C21.3894 34.8874 21.3851 34.8867 21.3808 34.8866L21.3779 34.8865L21.3734 34.887C21.367 34.8873 21.361 34.8883 21.3546 34.8899L21.3469 34.8919C21.3367 34.8955 21.329 34.8994 21.3226 34.904L20.8703 35.2368C20.8513 35.2507 20.8305 35.2613 20.8085 35.2685C20.7992 35.2715 20.7913 35.2723 20.7865 35.2728C20.7705 35.2761 20.7573 35.279 20.7418 35.2791H20.7417Z" fill="#373737"/>
<path fill-rule="evenodd" clip-rule="evenodd" d="M14.5039 13.3489C14.4899 13.3489 14.4782 13.3465 14.4688 13.3444L14.4632 13.3433C14.4555 13.3425 14.4471 13.3416 14.4374 13.3385C14.4152 13.3314 14.3945 13.3208 14.3758 13.307C14.357 13.2934 14.3405 13.2769 14.327 13.258C14.3002 13.2207 14.286 13.1766 14.286 13.1304C14.286 13.1071 14.2897 13.084 14.297 13.0618L14.4722 12.5276C14.4753 12.5179 14.477 12.5077 14.477 12.4972C14.477 12.4901 14.4761 12.4828 14.4744 12.4757C14.471 12.4611 14.4642 12.4477 14.4549 12.4365C14.4499 12.4306 14.4443 12.4253 14.4379 12.4207L13.9831 12.0915C13.9453 12.0642 13.9177 12.0264 13.9033 11.9821C13.8963 11.9604 13.8926 11.9378 13.8926 11.9152C13.8925 11.8919 13.8961 11.8687 13.9033 11.8465C13.9103 11.8248 13.9207 11.8046 13.934 11.7864C13.9729 11.7331 14.0361 11.6999 14.1072 11.6956L14.6722 11.6977C14.7025 11.6977 14.7303 11.6835 14.7483 11.6587C14.7543 11.6503 14.759 11.6412 14.7621 11.6314L14.933 11.0958C14.9621 11.0049 15.0453 10.9438 15.1403 10.9438C15.2353 10.9438 15.3187 11.0049 15.3477 11.0958L15.5187 11.6314C15.5218 11.6412 15.5264 11.6503 15.5324 11.6587C15.5505 11.6835 15.5783 11.6977 15.6088 11.6977L16.1695 11.6955C16.1935 11.6956 16.2165 11.6993 16.2384 11.7064C16.3049 11.7281 16.3556 11.7792 16.3774 11.8466C16.3846 11.8687 16.3883 11.8919 16.3881 11.9152C16.3881 11.9379 16.3845 11.9604 16.3774 11.9821C16.363 12.0263 16.3354 12.0642 16.2977 12.0915L15.8432 12.4203C15.8349 12.4263 15.8277 12.4335 15.8217 12.4419C15.8087 12.46 15.8024 12.4822 15.8039 12.5043C15.8045 12.5119 15.806 12.5195 15.8084 12.5269L15.9838 13.0618C15.9911 13.0842 15.9947 13.1072 15.9947 13.1304C15.9947 13.1766 15.9805 13.2207 15.9537 13.258C15.9402 13.2768 15.9238 13.2933 15.9048 13.3071C15.8675 13.3345 15.8232 13.3489 15.777 13.3489C15.7304 13.3489 15.6859 13.3343 15.6483 13.3066L15.1965 12.9742C15.1883 12.9681 15.1792 12.9635 15.1693 12.9603C15.1667 12.9595 15.1638 12.9592 15.1611 12.9588C15.1516 12.9572 15.1473 12.9566 15.143 12.9564L15.1401 12.9563L15.1356 12.9568C15.1292 12.9571 15.1232 12.9581 15.1168 12.9598L15.1091 12.9617C15.0989 12.9653 15.0912 12.9692 15.0848 12.9738L14.6325 13.3066C14.6135 13.3205 14.5927 13.3311 14.5707 13.3383C14.5615 13.3413 14.5535 13.3421 14.5487 13.3426C14.5327 13.346 14.5195 13.3489 14.504 13.3489H14.5039Z" fill="#373737"/>
<path fill-rule="evenodd" clip-rule="evenodd" d="M14.5039 19.6146C14.4899 19.6146 14.4782 19.6121 14.4688 19.6101L14.4632 19.6089C14.4555 19.6082 14.4471 19.6073 14.4374 19.6041C14.4152 19.597 14.3945 19.5864 14.3758 19.5727C14.357 19.559 14.3405 19.5425 14.327 19.5236C14.3002 19.4863 14.286 19.4422 14.286 19.3961C14.286 19.3727 14.2897 19.3496 14.297 19.3274L14.4722 18.7932C14.4753 18.7835 14.477 18.7733 14.477 18.7628C14.477 18.7557 14.4761 18.7484 14.4744 18.7413C14.471 18.7268 14.4642 18.7133 14.4549 18.7021C14.4499 18.6962 14.4443 18.691 14.4379 18.6863L13.9831 18.3572C13.9453 18.3298 13.9177 18.292 13.9033 18.2477C13.8963 18.226 13.8926 18.2034 13.8926 18.1808C13.8925 18.1575 13.8961 18.1343 13.9033 18.1121C13.9103 18.0904 13.9207 18.0702 13.934 18.052C13.9729 17.9987 14.0361 17.9655 14.1072 17.9612L14.6722 17.9633C14.7025 17.9633 14.7303 17.9491 14.7483 17.9243C14.7543 17.916 14.759 17.9068 14.7621 17.8971L14.933 17.3614C14.9621 17.2705 15.0453 17.2095 15.1403 17.2095C15.2353 17.2095 15.3187 17.2705 15.3477 17.3614L15.5187 17.897C15.5218 17.9069 15.5264 17.916 15.5324 17.9243C15.5505 17.9491 15.5783 17.9633 15.6088 17.9633L16.1695 17.9611C16.1935 17.9613 16.2165 17.9649 16.2384 17.972C16.3049 17.9937 16.3556 18.0448 16.3774 18.1122C16.3846 18.1343 16.3883 18.1575 16.3881 18.1808C16.3881 18.2035 16.3845 18.226 16.3774 18.2477C16.363 18.2919 16.3354 18.3298 16.2977 18.3571L15.8432 18.6859C15.8349 18.6919 15.8277 18.6992 15.8217 18.7076C15.8087 18.7256 15.8024 18.7478 15.8039 18.7699C15.8045 18.7775 15.806 18.7851 15.8084 18.7925L15.9838 19.3274C15.9911 19.3498 15.9947 19.3728 15.9947 19.3961C15.9947 19.4422 15.9805 19.4863 15.9537 19.5236C15.9402 19.5424 15.9238 19.559 15.9048 19.5728C15.8675 19.6001 15.8232 19.6146 15.777 19.6146C15.7304 19.6146 15.6859 19.5999 15.6483 19.5723L15.1965 19.2398C15.1883 19.2337 15.1792 19.2291 15.1693 19.2259C15.1667 19.2251 15.1638 19.2248 15.1611 19.2244C15.1516 19.2229 15.1473 19.2222 15.143 19.222L15.1401 19.222L15.1356 19.2225C15.1292 19.2228 15.1232 19.2237 15.1168 19.2254L15.1091 19.2274C15.0989 19.2309 15.0912 19.2348 15.0848 19.2395L14.6325 19.5723C14.6135 19.5862 14.5927 19.5968 14.5707 19.604C14.5615 19.6069 14.5535 19.6078 14.5487 19.6083C14.5327 19.6116 14.5195 19.6145 14.504 19.6146H14.5039Z" fill="#373737"/>
<path fill-rule="evenodd" clip-rule="evenodd" d="M14.5039 25.8807C14.4899 25.8807 14.4782 25.8782 14.4688 25.8762L14.4632 25.875C14.4555 25.8743 14.4471 25.8734 14.4374 25.8702C14.4152 25.8631 14.3945 25.8525 14.3758 25.8388C14.357 25.8251 14.3405 25.8086 14.327 25.7897C14.3002 25.7524 14.286 25.7083 14.286 25.6622C14.286 25.6388 14.2897 25.6157 14.297 25.5935L14.4722 25.0593C14.4753 25.0496 14.477 25.0394 14.477 25.0289C14.477 25.0219 14.4761 25.0145 14.4744 25.0074C14.471 24.9929 14.4642 24.9794 14.4549 24.9682C14.4499 24.9624 14.4443 24.9571 14.4379 24.9524L13.9831 24.6233C13.9453 24.5959 13.9177 24.5581 13.9033 24.5139C13.8963 24.4921 13.8926 24.4696 13.8926 24.4469C13.8925 24.4236 13.8961 24.4005 13.9033 24.3782C13.9103 24.3565 13.9207 24.3364 13.934 24.3181C13.9729 24.2648 14.0361 24.2316 14.1072 24.2273L14.6722 24.2294C14.7025 24.2294 14.7303 24.2152 14.7483 24.1904C14.7543 24.1821 14.759 24.1729 14.7621 24.1632L14.933 23.6275C14.9621 23.5367 15.0453 23.4756 15.1403 23.4756C15.2353 23.4756 15.3187 23.5367 15.3477 23.6275L15.5187 24.1631C15.5218 24.173 15.5264 24.1821 15.5324 24.1904C15.5505 24.2152 15.5783 24.2294 15.6088 24.2294L16.1695 24.2272C16.1935 24.2274 16.2165 24.231 16.2384 24.2382C16.3049 24.2599 16.3556 24.3109 16.3774 24.3783C16.3846 24.4005 16.3883 24.4236 16.3881 24.4469C16.3881 24.4696 16.3845 24.4922 16.3774 24.5139C16.363 24.5581 16.3354 24.5959 16.2977 24.6232L15.8432 24.952C15.8349 24.958 15.8277 24.9653 15.8217 24.9737C15.8087 24.9917 15.8024 25.0139 15.8039 25.036C15.8045 25.0436 15.806 25.0512 15.8084 25.0587L15.9838 25.5935C15.9911 25.6159 15.9947 25.6389 15.9947 25.6622C15.9947 25.7083 15.9805 25.7525 15.9537 25.7898C15.9402 25.8085 15.9238 25.8251 15.9048 25.8389C15.8675 25.8662 15.8232 25.8807 15.777 25.8807C15.7304 25.8807 15.6859 25.866 15.6483 25.8384L15.1965 25.5059C15.1883 25.4999 15.1792 25.4952 15.1693 25.492C15.1667 25.4912 15.1638 25.4909 15.1611 25.4905C15.1516 25.489 15.1473 25.4883 15.143 25.4881L15.1401 25.4881L15.1356 25.4886C15.1292 25.4889 15.1232 25.4898 15.1168 25.4915L15.1091 25.4935C15.0989 25.4971 15.0912 25.5009 15.0848 25.5056L14.6325 25.8384C14.6135 25.8523 14.5927 25.8629 14.5707 25.8701C14.5615 25.873 14.5535 25.8739 14.5487 25.8744C14.5327 25.8777 14.5195 25.8806 14.504 25.8807H14.5039Z" fill="#373737"/>
<path fill-rule="evenodd" clip-rule="evenodd" d="M14.5039 32.1468C14.4899 32.1468 14.4782 32.1443 14.4688 32.1423L14.4632 32.1411C14.4555 32.1404 14.4471 32.1395 14.4374 32.1363C14.4152 32.1292 14.3945 32.1186 14.3758 32.1049C14.357 32.0913 14.3405 32.0747 14.327 32.0558C14.3002 32.0185 14.286 31.9744 14.286 31.9283C14.286 31.9049 14.2897 31.8818 14.297 31.8596L14.4722 31.3254C14.4753 31.3157 14.477 31.3055 14.477 31.295C14.477 31.288 14.4761 31.2806 14.4744 31.2736C14.471 31.259 14.4642 31.2455 14.4549 31.2344C14.4499 31.2285 14.4443 31.2232 14.4379 31.2185L13.9831 30.8894C13.9453 30.862 13.9177 30.8242 13.9033 30.78C13.8963 30.7582 13.8926 30.7357 13.8926 30.713C13.8925 30.6897 13.8961 30.6666 13.9033 30.6444C13.9103 30.6227 13.9207 30.6025 13.934 30.5842C13.9729 30.5309 14.0361 30.4978 14.1072 30.4934L14.6722 30.4955C14.7025 30.4955 14.7303 30.4813 14.7483 30.4565C14.7543 30.4482 14.759 30.439 14.7621 30.4293L14.933 29.8936C14.9621 29.8028 15.0453 29.7417 15.1403 29.7417C15.2353 29.7417 15.3187 29.8028 15.3477 29.8936L15.5187 30.4292C15.5218 30.4391 15.5264 30.4482 15.5324 30.4565C15.5505 30.4813 15.5783 30.4955 15.6088 30.4955L16.1695 30.4933C16.1935 30.4935 16.2165 30.4971 16.2384 30.5043C16.3049 30.526 16.3556 30.577 16.3774 30.6444C16.3846 30.6666 16.3883 30.6897 16.3881 30.713C16.3881 30.7357 16.3845 30.7583 16.3774 30.78C16.363 30.8242 16.3354 30.862 16.2977 30.8893L15.8432 31.2182C15.8349 31.2242 15.8277 31.2314 15.8217 31.2398C15.8087 31.2579 15.8024 31.28 15.8039 31.3021C15.8045 31.3097 15.806 31.3173 15.8084 31.3248L15.9838 31.8596C15.9911 31.882 15.9947 31.9051 15.9947 31.9283C15.9947 31.9744 15.9805 32.0186 15.9537 32.0559C15.9402 32.0747 15.9238 32.0912 15.9048 32.105C15.8675 32.1323 15.8232 32.1468 15.777 32.1468C15.7304 32.1468 15.6859 32.1321 15.6483 32.1045L15.1965 31.772C15.1883 31.766 15.1792 31.7613 15.1693 31.7581C15.1667 31.7573 15.1638 31.7571 15.1611 31.7566C15.1516 31.7551 15.1473 31.7544 15.143 31.7543L15.1401 31.7542L15.1356 31.7547C15.1292 31.755 15.1232 31.7559 15.1168 31.7576L15.1091 31.7596C15.0989 31.7632 15.0912 31.767 15.0848 31.7717L14.6325 32.1045C14.6135 32.1184 14.5927 32.129 14.5707 32.1362C14.5615 32.1392 14.5535 32.14 14.5487 32.1405C14.5327 32.1438 14.5195 32.1467 14.504 32.1468H14.5039Z" fill="#373737"/>
<path fill-rule="evenodd" clip-rule="evenodd" d="M14.5039 38.4124C14.4899 38.4124 14.4782 38.4099 14.4688 38.4079L14.4632 38.4067C14.4555 38.406 14.4471 38.4051 14.4374 38.402C14.4152 38.3948 14.3945 38.3842 14.3758 38.3705C14.357 38.3569 14.3405 38.3403 14.327 38.3214C14.3002 38.2841 14.286 38.2401 14.286 38.1939C14.286 38.1706 14.2897 38.1475 14.297 38.1253L14.4722 37.5911C14.4753 37.5814 14.477 37.5712 14.477 37.5607C14.477 37.5536 14.4761 37.5463 14.4744 37.5392C14.471 37.5246 14.4642 37.5111 14.4549 37.5C14.4499 37.4941 14.4443 37.4888 14.4379 37.4842L13.9831 37.155C13.9453 37.1276 13.9177 37.0898 13.9033 37.0456C13.8963 37.0238 13.8926 37.0013 13.8926 36.9786C13.8925 36.9554 13.8961 36.9322 13.9033 36.91C13.9103 36.8883 13.9207 36.8681 13.934 36.8499C13.9729 36.7965 14.0361 36.7634 14.1072 36.7591L14.6722 36.7611C14.7025 36.7611 14.7303 36.747 14.7483 36.7222C14.7543 36.7138 14.759 36.7047 14.7621 36.6949L14.933 36.1593C14.9621 36.0684 15.0453 36.0073 15.1403 36.0073C15.2353 36.0073 15.3187 36.0684 15.3477 36.1593L15.5187 36.6949C15.5218 36.7047 15.5264 36.7138 15.5324 36.7222C15.5505 36.747 15.5783 36.7611 15.6088 36.7611L16.1695 36.759C16.1935 36.7591 16.2165 36.7628 16.2384 36.7699C16.3049 36.7916 16.3556 36.8426 16.3774 36.91C16.3846 36.9322 16.3883 36.9554 16.3881 36.9786C16.3881 37.0013 16.3845 37.0239 16.3774 37.0456C16.363 37.0898 16.3354 37.1276 16.2977 37.155L15.8432 37.4838C15.8349 37.4898 15.8277 37.497 15.8217 37.5054C15.8087 37.5235 15.8024 37.5456 15.8039 37.5677C15.8045 37.5754 15.806 37.5829 15.8084 37.5904L15.9838 38.1253C15.9911 38.1476 15.9947 38.1707 15.9947 38.1939C15.9947 38.2401 15.9805 38.2842 15.9537 38.3215C15.9402 38.3403 15.9238 38.3568 15.9048 38.3706C15.8675 38.3979 15.8232 38.4124 15.777 38.4124C15.7304 38.4124 15.6859 38.3978 15.6483 38.3701L15.1965 38.0377C15.1883 38.0316 15.1792 38.0269 15.1693 38.0237C15.1667 38.023 15.1638 38.0227 15.1611 38.0222C15.1516 38.0207 15.1473 38.02 15.143 38.0199L15.1401 38.0198L15.1356 38.0203C15.1292 38.0206 15.1232 38.0216 15.1168 38.0232L15.1091 38.0252C15.0989 38.0288 15.0912 38.0327 15.0848 38.0373L14.6325 38.3701C14.6135 38.384 14.5927 38.3946 14.5707 38.4018C14.5615 38.4048 14.5535 38.4056 14.5487 38.4061C14.5327 38.4094 14.5195 38.4123 14.504 38.4124H14.5039Z" fill="#373737"/>
<path fill-rule="evenodd" clip-rule="evenodd" d="M8.26462 16.4817C8.25066 16.4817 8.23899 16.4793 8.22955 16.4773L8.22391 16.4761C8.21626 16.4753 8.20789 16.4744 8.19817 16.4713C8.17594 16.4642 8.15528 16.4536 8.13652 16.4398C8.11776 16.4262 8.10128 16.4097 8.08777 16.3908C8.06097 16.3535 8.04678 16.3094 8.04678 16.2632C8.04678 16.2399 8.05041 16.2168 8.05773 16.1946L8.2329 15.6604C8.23609 15.6507 8.23776 15.6405 8.23776 15.63C8.23771 15.6229 8.23681 15.6156 8.23514 15.6085C8.23173 15.5939 8.22497 15.5805 8.21559 15.5693C8.21068 15.5634 8.20504 15.5582 8.19867 15.5535L7.74384 15.2244C7.70604 15.197 7.67845 15.1592 7.66404 15.1149C7.65701 15.0932 7.65338 15.0706 7.65332 15.048C7.65321 15.0247 7.65684 15.0015 7.66404 14.9793C7.67108 14.9576 7.68141 14.9374 7.6947 14.9192C7.73368 14.8659 7.79689 14.8327 7.86798 14.8284L8.43298 14.8305C8.46319 14.8305 8.491 14.8163 8.50904 14.7915C8.51507 14.7831 8.51971 14.774 8.52283 14.7642L8.69376 14.2286C8.7228 14.1377 8.80606 14.0767 8.90105 14.0767C8.99609 14.0767 9.07941 14.1377 9.10844 14.2286L9.27943 14.7642C9.28256 14.7741 9.28714 14.7831 9.29317 14.7915C9.31121 14.8163 9.33901 14.8305 9.3695 14.8305L9.93027 14.8283C9.95428 14.8285 9.97723 14.8321 9.99912 14.8392C10.0657 14.8609 10.1164 14.912 10.1382 14.9794C10.1454 15.0015 10.149 15.0247 10.1489 15.048C10.1488 15.0707 10.1452 15.0932 10.1381 15.1149C10.1237 15.1591 10.0962 15.197 10.0584 15.2243L9.60398 15.5531C9.59566 15.5591 9.58846 15.5663 9.58243 15.5748C9.56942 15.5928 9.56311 15.615 9.56467 15.6371C9.56523 15.6447 9.56674 15.6523 9.56914 15.6597L9.74454 16.1946C9.7518 16.217 9.75543 16.24 9.75543 16.2632C9.75543 16.3094 9.74124 16.3535 9.71444 16.3908C9.70098 16.4096 9.68451 16.4262 9.66558 16.44C9.62822 16.4673 9.58399 16.4817 9.5377 16.4817C9.49118 16.4817 9.44668 16.4671 9.40904 16.4395L8.95723 16.107C8.94902 16.1009 8.93991 16.0963 8.93009 16.0931C8.92741 16.0923 8.92456 16.092 8.92182 16.0916C8.91233 16.0901 8.90808 16.0894 8.90373 16.0892L8.90088 16.0892L8.89636 16.0897C8.88994 16.0899 8.88391 16.0909 8.87754 16.0926L8.86983 16.0945C8.85961 16.0981 8.85196 16.102 8.84554 16.1067L8.39322 16.4395C8.37424 16.4534 8.35347 16.464 8.33146 16.4711C8.32219 16.4741 8.31426 16.475 8.30946 16.4755C8.29349 16.4788 8.2802 16.4817 8.26479 16.4817H8.26462Z" fill="#373737"/>
<path fill-rule="evenodd" clip-rule="evenodd" d="M8.26462 22.7474C8.25066 22.7474 8.23899 22.7449 8.22955 22.7429L8.22391 22.7417C8.21626 22.741 8.20789 22.7401 8.19817 22.7369C8.17594 22.7298 8.15528 22.7192 8.13652 22.7055C8.11776 22.6918 8.10128 22.6753 8.08777 22.6564C8.06097 22.6191 8.04678 22.575 8.04678 22.5289C8.04678 22.5055 8.05041 22.4824 8.05773 22.4602L8.2329 21.926C8.23609 21.9163 8.23776 21.9061 8.23776 21.8956C8.23771 21.8886 8.23681 21.8812 8.23514 21.8741C8.23173 21.8596 8.22497 21.8461 8.21559 21.8349C8.21068 21.8291 8.20504 21.8238 8.19867 21.8191L7.74384 21.49C7.70604 21.4626 7.67845 21.4248 7.66404 21.3806C7.65701 21.3588 7.65338 21.3363 7.65332 21.3136C7.65321 21.2903 7.65684 21.2672 7.66404 21.2449C7.67108 21.2232 7.68141 21.2031 7.6947 21.1848C7.73368 21.1315 7.79689 21.0983 7.86798 21.094L8.43298 21.0961C8.46319 21.0961 8.491 21.0819 8.50904 21.0571C8.51507 21.0488 8.51971 21.0396 8.52283 21.0299L8.69376 20.4942C8.7228 20.4034 8.80606 20.3423 8.90105 20.3423C8.99609 20.3423 9.07941 20.4034 9.10844 20.4942L9.27943 21.0298C9.28256 21.0397 9.28714 21.0488 9.29317 21.0571C9.31121 21.0819 9.33901 21.0961 9.3695 21.0961L9.93027 21.0939C9.95428 21.0941 9.97723 21.0977 9.99912 21.1049C10.0657 21.1266 10.1164 21.1776 10.1382 21.245C10.1454 21.2672 10.149 21.2903 10.1489 21.3136C10.1488 21.3363 10.1452 21.3589 10.1381 21.3806C10.1237 21.4248 10.0962 21.4626 10.0584 21.4899L9.60398 21.8187C9.59566 21.8247 9.58846 21.832 9.58243 21.8404C9.56942 21.8584 9.56311 21.8806 9.56467 21.9027C9.56523 21.9103 9.56674 21.9179 9.56914 21.9254L9.74454 22.4602C9.7518 22.4826 9.75543 22.5056 9.75543 22.5289C9.75543 22.575 9.74124 22.6192 9.71444 22.6565C9.70098 22.6752 9.68451 22.6918 9.66558 22.7056C9.62822 22.7329 9.58399 22.7474 9.5377 22.7474C9.49118 22.7474 9.44668 22.7327 9.40904 22.7051L8.95723 22.3726C8.94902 22.3666 8.93991 22.3619 8.93009 22.3587C8.92741 22.3579 8.92456 22.3576 8.92182 22.3572C8.91233 22.3557 8.90808 22.355 8.90373 22.3548L8.90088 22.3548L8.89636 22.3553C8.88994 22.3556 8.88391 22.3565 8.87754 22.3582L8.86983 22.3602C8.85961 22.3638 8.85196 22.3676 8.84554 22.3723L8.39322 22.7051C8.37424 22.719 8.35347 22.7296 8.33146 22.7368C8.32219 22.7397 8.31426 22.7406 8.30946 22.7411C8.29349 22.7444 8.2802 22.7473 8.26479 22.7474H8.26462Z" fill="#373737"/>
<path fill-rule="evenodd" clip-rule="evenodd" d="M8.26462 29.0135C8.25066 29.0135 8.23899 29.011 8.22955 29.009L8.22391 29.0078C8.21626 29.0071 8.20789 29.0062 8.19817 29.003C8.17594 28.9959 8.15528 28.9853 8.13652 28.9716C8.11776 28.958 8.10128 28.9414 8.08777 28.9225C8.06097 28.8852 8.04678 28.8411 8.04678 28.795C8.04678 28.7716 8.05041 28.7485 8.05773 28.7263L8.2329 28.1921C8.23609 28.1824 8.23776 28.1722 8.23776 28.1617C8.23771 28.1547 8.23681 28.1473 8.23514 28.1403C8.23173 28.1257 8.22497 28.1122 8.21559 28.1011C8.21068 28.0952 8.20504 28.0899 8.19867 28.0852L7.74384 27.7561C7.70604 27.7287 7.67845 27.6909 7.66404 27.6467C7.65701 27.6249 7.65338 27.6024 7.65332 27.5797C7.65321 27.5564 7.65684 27.5333 7.66404 27.5111C7.67108 27.4894 7.68141 27.4692 7.6947 27.4509C7.73368 27.3976 7.79689 27.3645 7.86798 27.3601L8.43298 27.3622C8.46319 27.3622 8.491 27.348 8.50904 27.3232C8.51507 27.3149 8.51971 27.3057 8.52283 27.296L8.69376 26.7603C8.7228 26.6695 8.80606 26.6084 8.90105 26.6084C8.99609 26.6084 9.07941 26.6695 9.10844 26.7603L9.27943 27.2959C9.28256 27.3058 9.28714 27.3149 9.29317 27.3232C9.31121 27.348 9.33901 27.3622 9.3695 27.3622L9.93027 27.36C9.95428 27.3602 9.97723 27.3638 9.99912 27.371C10.0657 27.3927 10.1164 27.4437 10.1382 27.5111C10.1454 27.5333 10.149 27.5564 10.1489 27.5797C10.1488 27.6024 10.1452 27.625 10.1381 27.6467C10.1237 27.6909 10.0962 27.7287 10.0584 27.756L9.60398 28.0849C9.59566 28.0909 9.58846 28.0981 9.58243 28.1065C9.56942 28.1246 9.56311 28.1467 9.56467 28.1688C9.56523 28.1764 9.56674 28.184 9.56914 28.1915L9.74454 28.7263C9.7518 28.7487 9.75543 28.7718 9.75543 28.795C9.75543 28.8411 9.74124 28.8853 9.71444 28.9226C9.70098 28.9414 9.68451 28.9579 9.66558 28.9717C9.62822 28.999 9.58399 29.0135 9.5377 29.0135C9.49118 29.0135 9.44668 28.9988 9.40904 28.9712L8.95723 28.6387C8.94902 28.6327 8.93991 28.628 8.93009 28.6248C8.92741 28.624 8.92456 28.6238 8.92182 28.6233C8.91233 28.6218 8.90808 28.6211 8.90373 28.621L8.90088 28.6209L8.89636 28.6214C8.88994 28.6217 8.88391 28.6226 8.87754 28.6243L8.86983 28.6263C8.85961 28.6299 8.85196 28.6337 8.84554 28.6384L8.39322 28.9712C8.37424 28.9851 8.35347 28.9957 8.33146 29.0029C8.32219 29.0059 8.31426 29.0067 8.30946 29.0072C8.29349 29.0105 8.2802 29.0134 8.26479 29.0135H8.26462Z" fill="#373737"/>
<path fill-rule="evenodd" clip-rule="evenodd" d="M8.26462 35.2791C8.25066 35.2791 8.23899 35.2766 8.22955 35.2746L8.22391 35.2734C8.21626 35.2727 8.20789 35.2718 8.19817 35.2687C8.17594 35.2616 8.15528 35.251 8.13652 35.2372C8.11776 35.2236 8.10128 35.207 8.08777 35.1881C8.06097 35.1508 8.04678 35.1068 8.04678 35.0606C8.04678 35.0373 8.05041 35.0142 8.05773 34.992L8.2329 34.4578C8.23609 34.4481 8.23776 34.4379 8.23776 34.4274C8.23771 34.4203 8.23681 34.413 8.23514 34.4059C8.23173 34.3913 8.22497 34.3778 8.21559 34.3667C8.21068 34.3608 8.20504 34.3555 8.19867 34.3509L7.74384 34.0217C7.70604 33.9943 7.67845 33.9565 7.66404 33.9123C7.65701 33.8905 7.65338 33.868 7.65332 33.8453C7.65321 33.8221 7.65684 33.7989 7.66404 33.7767C7.67108 33.755 7.68141 33.7348 7.6947 33.7166C7.73368 33.6632 7.79689 33.6301 7.86798 33.6258L8.43298 33.6278C8.46319 33.6278 8.491 33.6137 8.50904 33.5889C8.51507 33.5805 8.51971 33.5714 8.52283 33.5616L8.69376 33.026C8.7228 32.9351 8.80606 32.874 8.90105 32.874C8.99609 32.874 9.07941 32.9351 9.10844 33.026L9.27943 33.5615C9.28256 33.5714 9.28714 33.5805 9.29317 33.5889C9.31121 33.6137 9.33901 33.6278 9.3695 33.6278L9.93027 33.6257C9.95428 33.6258 9.97723 33.6295 9.99912 33.6366C10.0657 33.6583 10.1164 33.7093 10.1382 33.7767C10.1454 33.7989 10.149 33.8221 10.1489 33.8453C10.1488 33.868 10.1452 33.8906 10.1381 33.9123C10.1237 33.9565 10.0962 33.9943 10.0584 34.0217L9.60398 34.3505C9.59566 34.3565 9.58846 34.3637 9.58243 34.3721C9.56942 34.3902 9.56311 34.4123 9.56467 34.4344C9.56523 34.4421 9.56674 34.4496 9.56914 34.4571L9.74454 34.992C9.7518 35.0143 9.75543 35.0374 9.75543 35.0606C9.75543 35.1068 9.74124 35.1509 9.71444 35.1882C9.70098 35.207 9.68451 35.2235 9.66558 35.2373C9.62822 35.2646 9.58399 35.2791 9.5377 35.2791C9.49118 35.2791 9.44668 35.2645 9.40904 35.2368L8.95723 34.9044C8.94902 34.8983 8.93991 34.8936 8.93009 34.8904C8.92741 34.8897 8.92456 34.8894 8.92182 34.8889C8.91233 34.8874 8.90808 34.8867 8.90373 34.8866L8.90088 34.8865L8.89636 34.887C8.88994 34.8873 8.88391 34.8883 8.87754 34.8899L8.86983 34.8919C8.85961 34.8955 8.85196 34.8994 8.84554 34.904L8.39322 35.2368C8.37424 35.2507 8.35347 35.2613 8.33146 35.2685C8.32219 35.2715 8.31426 35.2723 8.30946 35.2728C8.29349 35.2761 8.2802 35.279 8.26479 35.2791H8.26462Z" fill="#373737"/>
</g>
</g>
<path fill-rule="evenodd" clip-rule="evenodd" d="M23.4212 31.4747C24.7125 31.4747 25.7686 30.4172 25.7686 29.1258V26.7417H28.1527C29.4441 26.7417 30.5001 25.6857 30.5001 24.3958C30.5001 23.1044 29.4441 22.0484 28.1527 22.0484H25.7686V19.6628C25.7686 18.3715 24.7125 17.3154 23.4212 17.3154C22.1298 17.3154 21.0723 18.3715 21.0723 19.6628V22.0484H18.6882C17.3968 22.0484 16.3423 23.1044 16.3423 24.3958C16.3423 25.6857 17.3968 26.7417 18.6882 26.7417H21.0723V29.1258C21.0723 30.4172 22.1298 31.4747 23.4212 31.4747Z" fill="#CEDC00"/>
</g>
<path fill-rule="evenodd" clip-rule="evenodd" d="M37.6374 42.3995C28.602 49.1821 15.721 48.4632 7.50079 40.243C-1.50717 31.235 -1.50717 16.6302 7.50079 7.62225C16.5088 -1.38571 31.1136 -1.38571 40.1215 7.62225C48.3415 15.8422 49.0606 28.7227 42.2787 37.758L57.795 53.2743C59.0766 54.556 59.0766 56.634 57.7949 57.9157C56.5133 59.1974 54.4352 59.1974 53.1536 57.9157L37.6374 42.3995ZM35.4806 35.6016C41.9252 29.157 41.9252 18.7082 35.4806 12.2636C29.036 5.81904 18.5872 5.81904 12.1426 12.2636C5.69801 18.7082 5.69801 29.157 12.1426 35.6016C18.5872 42.0462 29.036 42.0462 35.4806 35.6016Z" fill="#00A82D"/>
<mask id="mask2" mask-type="alpha" maskUnits="userSpaceOnUse" x="0" y="0" width="59" height="59">
<path fill-rule="evenodd" clip-rule="evenodd" d="M37.6374 42.3995C28.602 49.1821 15.721 48.4632 7.50079 40.243C-1.50717 31.235 -1.50717 16.6302 7.50079 7.62225C16.5088 -1.38571 31.1136 -1.38571 40.1215 7.62225C48.3415 15.8422 49.0606 28.7227 42.2787 37.758L57.795 53.2743C59.0766 54.556 59.0766 56.634 57.7949 57.9157C56.5133 59.1974 54.4352 59.1974 53.1536 57.9157L37.6374 42.3995ZM35.4806 35.6016C41.9252 29.157 41.9252 18.7082 35.4806 12.2636C29.036 5.81904 18.5872 5.81904 12.1426 12.2636C5.69801 18.7082 5.69801 29.157 12.1426 35.6016C18.5872 42.0462 29.036 42.0462 35.4806 35.6016Z" fill="white"/>
</mask>
<g mask="url(#mask2)">
</g>
</svg>
